<?xml version="1.0" encoding="utf-8"?>
<!-- Generator: Adobe Illustrator 24.0.2, SVG Export Plug-In . SVG Version: 6.00 Build 0)  -->
<svg version="1.1" id="Layer_1" xmlns="http://www.w3.org/2000/svg" xmlns:xlink="http://www.w3.org/1999/xlink" x="0px" y="0px"
	 viewBox="0 0 100 100" style="enable-background:new 0 0 100 100;" xml:space="preserve">
<style type="text/css">
	.st0{fill:#EAE0D6;}
	.st1{fill:#7D6939;}
</style>
<g>
	
		<ellipse transform="matrix(0.7579 -0.6523 0.6523 0.7579 -20.531 44.7707)" class="st0" cx="50.06" cy="50.05" rx="34.99" ry="34.99"/>
	<g>
		<g>
			<path class="st1" d="M50.06,51.71c-0.41,0-0.75-0.34-0.75-0.75v-7.81c0-0.41,0.34-0.75,0.75-0.75s0.75,0.34,0.75,0.75v7.81
				C50.81,51.37,50.47,51.71,50.06,51.71z"/>
		</g>
		<g>
			<path class="st1" d="M65.69,51.71c-0.41,0-0.75-0.33-0.75-0.75v-1.07c0-1.46-1.19-2.65-2.64-2.65H38.94
				c-1.46,0-2.65,1.19-2.65,2.65v1.07c0,0.41-0.34,0.75-0.75,0.75s-0.75-0.33-0.75-0.75v-1.07c0-2.29,1.86-4.15,4.15-4.15h23.35
				c2.29,0,4.14,1.86,4.14,4.15v1.07C66.44,51.37,66.1,51.71,65.69,51.71z"/>
		</g>
		<g>
			<path class="st1" d="M36.98,71.8h-5.1c-2.09,0-3.78-2.14-3.78-4.76c0-1.3,0.85-2.32,1.93-2.32h8.8c1.08,0,1.93,1.02,1.93,2.32
				C40.76,69.66,39.07,71.8,36.98,71.8z M30.03,66.22c-0.17,0-0.43,0.33-0.43,0.82c0,1.77,1.04,3.26,2.28,3.26h5.1
				c1.24,0,2.28-1.5,2.28-3.26c0-0.49-0.26-0.82-0.43-0.82H30.03z"/>
		</g>
		<g>
			<path class="st1" d="M34.62,63.99h-0.37c-2.16,0-3.91-1.76-3.91-3.91v-2.6c0-2.16,1.76-3.91,3.91-3.91h0.37
				c2.16,0,3.91,1.76,3.91,3.91v2.6C38.53,62.23,36.78,63.99,34.62,63.99z M34.25,55.06c-1.33,0-2.41,1.08-2.41,2.41v2.6
				c0,1.33,1.08,2.41,2.41,2.41h0.37c1.33,0,2.41-1.08,2.41-2.41v-2.6c0-1.33-1.08-2.41-2.41-2.41H34.25z"/>
		</g>
		<g>
			<path class="st1" d="M52.64,71.8h-5.1c-2.09,0-3.78-2.14-3.78-4.76c0-1.3,0.85-2.32,1.93-2.32h8.8c1.08,0,1.93,1.02,1.93,2.32
				C56.42,69.66,54.73,71.8,52.64,71.8z M45.69,66.22c-0.17,0-0.43,0.33-0.43,0.82c0,1.77,1.04,3.26,2.28,3.26h5.1
				c1.24,0,2.28-1.5,2.28-3.26c0-0.49-0.26-0.82-0.43-0.82H45.69z"/>
		</g>
		<g>
			<path class="st1" d="M50.25,63.99h-0.37c-2.16,0-3.91-1.76-3.91-3.91v-2.6c0-2.16,1.76-3.91,3.91-3.91h0.37
				c2.16,0,3.91,1.76,3.91,3.91v2.6C54.16,62.23,52.4,63.99,50.25,63.99z M49.87,55.06c-1.33,0-2.41,1.08-2.41,2.41v2.6
				c0,1.33,1.08,2.41,2.41,2.41h0.37c1.33,0,2.41-1.08,2.41-2.41v-2.6c0-1.33-1.08-2.41-2.41-2.41H49.87z"/>
		</g>
		<g>
			<path class="st1" d="M52.64,40.54h-5.1c-2.09,0-3.78-2.14-3.78-4.76c0-1.3,0.85-2.32,1.93-2.32h8.8c1.08,0,1.93,1.02,1.93,2.32
				C56.42,38.41,54.73,40.54,52.64,40.54z M45.69,34.96c-0.17,0-0.43,0.33-0.43,0.82c0,1.77,1.04,3.26,2.28,3.26h5.1
				c1.24,0,2.28-1.5,2.28-3.26c0-0.49-0.26-0.82-0.43-0.82H45.69z"/>
		</g>
		<g>
			<path class="st1" d="M50.25,32.73h-0.37c-2.16,0-3.91-1.76-3.91-3.91v-2.6c0-2.16,1.76-3.91,3.91-3.91h0.37
				c2.16,0,3.91,1.76,3.91,3.91v2.6C54.16,30.97,52.4,32.73,50.25,32.73z M49.87,23.8c-1.33,0-2.41,1.08-2.41,2.41v2.6
				c0,1.33,1.08,2.41,2.41,2.41h0.37c1.33,0,2.41-1.08,2.41-2.41v-2.6c0-1.33-1.08-2.41-2.41-2.41H49.87z"/>
		</g>
		<g>
			<path class="st1" d="M68.24,71.8h-5.1c-2.09,0-3.78-2.14-3.78-4.76c0-1.3,0.85-2.32,1.93-2.32h8.8c1.08,0,1.93,1.02,1.93,2.32
				C72.02,69.66,70.32,71.8,68.24,71.8z M61.29,66.22c-0.17,0-0.43,0.33-0.43,0.82c0,1.77,1.04,3.26,2.28,3.26h5.1
				c1.24,0,2.28-1.5,2.28-3.26c0-0.49-0.26-0.82-0.43-0.82H61.29z"/>
		</g>
		<g>
			<path class="st1" d="M65.87,63.99H65.5c-2.16,0-3.91-1.76-3.91-3.91v-2.6c0-2.16,1.76-3.91,3.91-3.91h0.37
				c2.16,0,3.91,1.76,3.91,3.91v2.6C69.79,62.23,68.03,63.99,65.87,63.99z M65.5,55.06c-1.33,0-2.41,1.08-2.41,2.41v2.6
				c0,1.33,1.08,2.41,2.41,2.41h0.37c1.33,0,2.41-1.08,2.41-2.41v-2.6c0-1.33-1.08-2.41-2.41-2.41H65.5z"/>
		</g>
	</g>
</g>
</svg>
