<svg xmlns="http://www.w3.org/2000/svg" width="15" height="15" fill="none" viewBox="0 0 15 15">
    <path stroke="#6D6F94" stroke-linecap="round" stroke-linejoin="round" d="M11.18 6.81c.872-.122 1.543-.87 1.545-1.775 0-.893-.65-1.633-1.504-1.773M12.33 8.906c.845.127 1.434.422 1.434 1.032 0 .42-.278.692-.726.863"/>
    <path fill-rule="evenodd" stroke="#6D6F94" stroke-linecap="round" stroke-linejoin="round" d="M7.43 9.165c-2.01 0-3.725.304-3.725 1.52 0 1.215 1.705 1.528 3.724 1.528 2.01 0 3.724-.301 3.724-1.518 0-1.216-1.704-1.53-3.724-1.53zM7.429 7.43c1.318 0 2.387-1.068 2.387-2.387 0-1.318-1.069-2.387-2.387-2.387S5.042 3.725 5.042 5.043c-.005 1.314 1.056 2.383 2.37 2.387h.017z" clip-rule="evenodd"/>
    <path stroke="#6D6F94" stroke-linecap="round" stroke-linejoin="round" d="M3.678 6.81c-.873-.122-1.543-.87-1.545-1.775 0-.893.65-1.633 1.504-1.773M2.527 8.906c-.844.127-1.433.422-1.433 1.032 0 .42.277.692.726.863"/>
</svg>
