<svg xmlns="http://www.w3.org/2000/svg" width="23" height="19" fill="none" viewBox="0 0 23 19">
    <mask id="51mlhnjuva" width="18" height="19" x="3" y="0" maskUnits="userSpaceOnUse">
        <path fill="#fff" fill-rule="evenodd" d="M3.297 0h17.177v18.89H3.297V0z" clip-rule="evenodd"/>
    </mask>
    <g mask="url(#51mlhnjuva)">
        <path fill="#414040" fill-rule="evenodd" d="M7.809 1.43c-1.655 0-3.001 1.271-3.001 2.833v10.322c.005.772.33 1.499.913 2.044.582.543 1.385.855 2.177.836l.123-.001h7.941c1.655-.017 3.005-1.308 3.001-2.878V6.024L14.294 1.43H7.81zm.064 17.46c-1.209 0-2.352-.442-3.215-1.25-.87-.812-1.354-1.896-1.361-3.053V4.26C3.297 1.912 5.32 0 7.809 0h6.808c.205 0 .401.079.545.219l5.102 5.022c.135.132.21.31.21.494v8.848c.006 2.349-2.015 4.281-4.504 4.306l-8.067.001h-.03z" clip-rule="evenodd"/>
    </g>
    <path fill="#414040" fill-rule="evenodd" d="M19.373 6.805h-2.79c-1.851-.004-3.356-1.295-3.356-2.876V1.412c0-.358.34-.649.759-.649s.759.29.759.649v2.517c0 .868.825 1.576 1.84 1.578h2.788c.419 0 .759.291.759.65 0 .357-.34.648-.76.648z" clip-rule="evenodd"/>
    <rect width="22.442" height="1.726" x=".279" y="9.394" fill="#fff" rx=".863"/>
    <rect width="22.442" height="1.726" x=".279" y="11.119" fill="#414040" rx=".863"/>
</svg>
