<svg width="52" height="51" viewBox="0 0 52 51" fill="none" xmlns="http://www.w3.org/2000/svg">
<path d="M24.0602 30.9755H17.2344" stroke="#62B5A6" stroke-width="1.5" stroke-linecap="round" stroke-linejoin="round"/>
<path d="M27.1035 20.4754H33.9293" stroke="#62B5A6" stroke-width="1.5" stroke-linecap="round" stroke-linejoin="round"/>
<path fill-rule="evenodd" clip-rule="evenodd" d="M22.3213 20.4168C22.3213 19.0131 21.175 17.875 19.7612 17.875C18.3475 17.875 17.2012 19.0131 17.2012 20.4168C17.2012 21.8204 18.3475 22.9585 19.7612 22.9585C21.175 22.9585 22.3213 21.8204 22.3213 20.4168Z" stroke="#62B5A6" stroke-width="1.5" stroke-linecap="round" stroke-linejoin="round"/>
<path fill-rule="evenodd" clip-rule="evenodd" d="M34.5342 30.9334C34.5342 29.5297 33.3887 28.3916 31.975 28.3916C30.5604 28.3916 29.4141 29.5297 29.4141 30.9334C29.4141 32.337 30.5604 33.4751 31.975 33.4751C33.3887 33.4751 34.5342 32.337 34.5342 30.9334Z" stroke="#62B5A6" stroke-width="1.5" stroke-linecap="round" stroke-linejoin="round"/>
</svg>
