<svg width="20" height="20" xmlns="http://www.w3.org/2000/svg">
 <style type="text/css">.st0{fill:#6D6F94;}</style>

 <g>
  <title>background</title>
  <rect fill="none" id="canvas_background" height="22" width="22" y="-1" x="-1"/>
 </g>
 <g>
  <title>Layer 1</title>
  <g id="svg_1">
   <path id="svg_2" d="m18.265633,11.076048c0.09,0.4 0.11,0.82 0.05,1.27s-0.19,0.83 -0.4,1.16c0.07,0.42 0.05,0.84 -0.07,1.27s-0.3,0.79 -0.56,1.09c0.02,0.96 -0.25,1.73 -0.81,2.3s-1.36,0.86 -2.39,0.86l-1.44,0c-0.7,0 -1.48,-0.11 -2.32,-0.32c-0.49,-0.12 -1.17,-0.33 -2.04,-0.63l-1.05,-0.35c-0.33,-0.09 -0.6,-0.14 -0.81,-0.14l0,0.32c0,0.3 -0.11,0.57 -0.33,0.79s-0.5,0.33 -0.8,0.33l-3.38,0c-0.3,0 -0.57,-0.11 -0.79,-0.33s-0.33,-0.49 -0.33,-0.79l0,-9c0,-0.3 0.11,-0.57 0.33,-0.79s0.49,-0.33 0.79,-0.33l3.38,0c0.4,0 0.7,0.16 0.91,0.49c0.12,-0.02 0.21,-0.05 0.28,-0.07c0.21,-0.12 0.48,-0.36 0.81,-0.74c0.21,-0.23 0.53,-0.62 0.95,-1.16c0.52,-0.7 0.89,-1.16 1.13,-1.37c0.14,-0.14 0.26,-0.36 0.35,-0.67c0.07,-0.19 0.14,-0.48 0.21,-0.88c0.31,-1.58 0.86,-2.36 1.65,-2.36c1.01,0 1.75,0.28 2.21,0.84s0.7,1.37 0.7,2.43c0,0.45 -0.07,0.89 -0.21,1.34c-0.09,0.26 -0.25,0.6 -0.46,1.02l-0.07,0.11l2.46,0c0.7,0 1.31,0.26 1.81,0.77s0.77,1.11 0.77,1.8s-0.18,1.28 -0.53,1.74zm-16.34,6.83l3.38,0l0,-9l-3.38,0l0,9zm2.53,-1.69c0,-0.23 -0.08,-0.43 -0.25,-0.6s-0.36,-0.25 -0.6,-0.25s-0.43,0.08 -0.6,0.25s-0.25,0.36 -0.25,0.6s0.08,0.43 0.25,0.6s0.36,0.25 0.6,0.25s0.43,-0.08 0.6,-0.25s0.25,-0.37 0.25,-0.6zm12.37,-5.49c0.28,-0.07 0.49,-0.23 0.63,-0.49s0.21,-0.57 0.21,-0.93s-0.14,-0.69 -0.42,-0.98s-0.62,-0.44 -1.02,-0.44l-3.93,0c0,-0.33 0.06,-0.64 0.18,-0.95c0.07,-0.19 0.19,-0.46 0.37,-0.81s0.3,-0.63 0.37,-0.84c0.12,-0.33 0.18,-0.66 0.18,-0.98c0,-0.66 -0.08,-1.13 -0.25,-1.41c-0.26,-0.49 -0.77,-0.74 -1.55,-0.74c-0.14,0.14 -0.26,0.35 -0.35,0.63c-0.05,0.16 -0.12,0.43 -0.21,0.81c-0.09,0.52 -0.18,0.89 -0.25,1.13c-0.16,0.42 -0.37,0.76 -0.62,1s-0.63,0.71 -1.14,1.39c-0.56,0.73 -0.98,1.23 -1.27,1.51c-0.49,0.47 -0.94,0.7 -1.34,0.7l0,7.14c0.28,0 0.63,0.06 1.05,0.18c0.26,0.07 0.68,0.21 1.27,0.42c0.8,0.26 1.41,0.45 1.83,0.56c0.75,0.19 1.44,0.28 2.07,0.28l1.44,0c0.73,0 1.27,-0.19 1.62,-0.56c0.4,-0.42 0.53,-1.07 0.39,-1.93c0.33,-0.16 0.56,-0.47 0.69,-0.93s0.08,-0.87 -0.16,-1.25c0.26,-0.12 0.43,-0.35 0.53,-0.7s0.11,-0.7 0.05,-1.05s-0.18,-0.62 -0.37,-0.76z" class="st0"/>
  </g>
 </g>
</svg>