<svg width="24.999999999999996" height="20" xmlns="http://www.w3.org/2000/svg">
 <style type="text/css">.st0{fill:#6D6F94;}</style>

 <g>
  <title>background</title>
  <rect fill="none" id="canvas_background" height="22" width="27" y="-1" x="-1"/>
 </g>
 <g>
  <title>Layer 1</title>
  <g id="svg_1">
   <path id="svg_2" d="m24.017392,5.517109c0.07,0 0.14,0.03 0.2,0.09c0.06,0.06 0.09,0.13 0.09,0.2l0,0.59c0,0.07 -0.03,0.14 -0.09,0.2c-0.06,0.06 -0.13,0.09 -0.2,0.09l-2.08,0l0,7.13l2.08,0c0.07,0 0.14,0.03 0.2,0.09c0.06,0.06 0.09,0.13 0.09,0.2l0,0.59c0,0.07 -0.03,0.14 -0.09,0.2c-0.06,0.06 -0.13,0.09 -0.2,0.09l-2.08,0c-0.32,0 -0.6,-0.12 -0.84,-0.35c-0.23,-0.24 -0.35,-0.51 -0.35,-0.83l-1.78,0c-0.05,0.37 -0.19,0.69 -0.41,0.96l-0.33,0.45c-0.3,0.35 -0.68,0.56 -1.15,0.63c-0.4,0.05 -0.75,-0.01 -1.08,-0.19l-0.82,0.96c-0.4,0.5 -0.92,0.74 -1.56,0.74c-0.47,0 -0.88,-0.15 -1.22,-0.45l-0.26,-0.22c-0.54,0.45 -1.17,0.67 -1.87,0.67s-1.33,-0.22 -1.87,-0.67l-3.04,-2.89l-1.22,0c0,0.32 -0.12,0.6 -0.35,0.83s-0.51,0.35 -0.83,0.35l-2.08,0c-0.07,0 -0.14,-0.03 -0.2,-0.09s-0.09,-0.13 -0.09,-0.2l0,-0.59c0,-0.07 0.03,-0.14 0.09,-0.2s0.13,-0.09 0.2,-0.09l2.08,0l0,-7.13l-2.08,0c-0.07,0 -0.14,-0.03 -0.2,-0.09s-0.09,-0.13 -0.09,-0.2l0,-0.59c0,-0.07 0.03,-0.14 0.09,-0.2s0.13,-0.09 0.2,-0.09l4.19,0l1.86,-1.86c0.37,-0.35 0.79,-0.52 1.26,-0.52l2.6,0c0.4,0 0.75,0.12 1.08,0.37c0.35,-0.25 0.69,-0.37 1.04,-0.37l3.75,0c0.5,0 0.92,0.17 1.26,0.52l1.93,1.86l4.17,0l0,0.01zm-22.86,7.13c-0.17,0 -0.32,-0.06 -0.43,-0.19s-0.17,-0.27 -0.17,-0.43s0.06,-0.3 0.17,-0.41s0.25,-0.17 0.43,-0.17s0.32,0.06 0.43,0.17s0.17,0.25 0.17,0.41s-0.06,0.3 -0.17,0.43s-0.26,0.19 -0.43,0.19zm16.48,1.41c0.1,-0.15 0.14,-0.3 0.13,-0.46s-0.08,-0.29 -0.2,-0.39l-4.68,-3.79l-0.85,0.78c-0.42,0.4 -0.89,0.62 -1.41,0.67c-0.45,0.05 -0.88,-0.02 -1.3,-0.22c-0.37,-0.17 -0.66,-0.37 -0.85,-0.59c-0.5,-0.52 -0.72,-1.13 -0.69,-1.84s0.32,-1.29 0.83,-1.76l2.19,-2l-0.04,-0.11l-2.6,0c-0.15,0 -0.28,0.06 -0.41,0.19l-2.19,2.19l-1.45,0l0,5.94l1.71,0l3.34,3.19c0.37,0.3 0.8,0.42 1.28,0.37s0.88,-0.27 1.21,-0.67l0.37,-0.48l1.15,1c0.15,0.12 0.33,0.17 0.54,0.15s0.39,-0.12 0.54,-0.3l1.52,-1.89l0.67,0.56c0.12,0.1 0.27,0.14 0.45,0.11s0.31,-0.1 0.41,-0.22l0.33,-0.43zm3.11,-1.41l0,-5.94l-1.45,0l-2.23,-2.19c-0.12,-0.12 -0.27,-0.19 -0.45,-0.19l-3.75,0c-0.15,0 -0.28,0.05 -0.41,0.15l-3.08,2.82c-0.27,0.27 -0.41,0.59 -0.43,0.96s0.11,0.69 0.35,0.96s0.56,0.41 0.95,0.43s0.71,-0.11 0.98,-0.35l2.78,-2.52c0.12,-0.12 0.27,-0.18 0.43,-0.17s0.3,0.07 0.41,0.19s0.16,0.25 0.15,0.43s-0.07,0.31 -0.17,0.41l-1.08,0.96l4.55,3.67c0.1,0.1 0.21,0.22 0.33,0.37l2.12,0l0,0.01zm2.97,-1.19c0.17,0 0.31,0.06 0.43,0.17s0.17,0.25 0.17,0.41s-0.06,0.3 -0.17,0.43s-0.25,0.19 -0.43,0.19c-0.17,0 -0.32,-0.06 -0.43,-0.17s-0.17,-0.25 -0.17,-0.43s0.05,-0.32 0.17,-0.43s0.26,-0.17 0.43,-0.17z" class="st0"/>
  </g>
 </g>
</svg>