<svg xmlns="http://www.w3.org/2000/svg" width="35" height="37" fill="none" viewBox="0 0 35 37">
    <path fill="#7D6939" d="M16.275 20.341h3.15c-.455-.546-.797-1.172-1.015-1.841-.85.423-1.768.67-2.73.714.157.387.358.766.595 1.127z"/>
    <path fill="#7D6939" d="M34.054 23.08c-.324-.37-.796-.58-1.286-.58h-1.724v-.133c0-2.105-1.409-3.946-3.43-4.475l-4.498-1.19c-.927-.493-1.592-1.373-1.793-2.351 1.837-1.454 3.053-3.938 3.053-6.757 0-4.194-2.808-7.118-6.825-7.118-4.016 0-6.824 2.924-6.824 7.118 0 2.81 1.216 5.294 3.044 6.748v.026c-.192.996-.84 1.841-1.785 2.326l-4.506 1.19c-2.021.537-3.43 2.378-3.43 4.475v.132H2.326c-.49 0-.962.211-1.286.581-.324.37-.481.864-.429 1.348l1.12 10.28c.114 1.075 1.015 1.895 2.1 1.895h27.423c1.076 0 1.977-.81 2.1-1.894l1.12-10.281c.061-.485-.096-.97-.42-1.34zM11.75 18.105c.508 1.427 2.118 3.136 3.483 4.396H5.336v-.133c0-1.515 1.015-2.836 2.468-3.224l3.946-1.04zm4.804 5.558c.254.212.473.388.604.494.113.088.253.14.393.14s.28-.043.394-.14c.131-.106.341-.273.604-.494h11.209v1.516c-3.273 3.268-7.604 5.074-12.215 5.074s-8.934-1.797-12.207-5.066v-1.515h11.218v-.009zm6.799-5.558l3.937 1.04c1.453.387 2.468 1.708 2.468 3.223v.133H19.87c1.374-1.26 2.984-2.96 3.483-4.396zm-2.293-1.445h-2.703c.218.335.463.66.77.942.105.097.175.22.218.353h2.695c-.586 1.242-2.467 3.145-4.121 4.546h-.744c-1.785-1.524-3.841-3.63-4.244-4.855.963-.599 1.663-1.506 1.978-2.563.814.405 1.697.625 2.634.625.096 0 .201-.008.297-.017.823-.044 1.619-.256 2.337-.617.192.582.49 1.119.883 1.586zm-3.508-14.88c3.307 0 5.538 2.344 5.538 5.824 0 3.761-2.485 6.818-5.538 6.818-3.054 0-5.54-3.057-5.54-6.818 0-3.489 2.223-5.823 5.54-5.823zm14.665 32.807c-.053.494-.464.864-.954.864H3.84c-.49 0-.901-.37-.954-.864l-1.12-10.28c-.017-.168.035-.326.14-.45.114-.123.263-.194.43-.194h1.723v1.78c0 .167.07.335.184.45 3.535 3.637 8.268 5.646 13.308 5.646 5.05 0 9.774-2.009 13.31-5.647.113-.123.183-.282.183-.45v-1.779h1.724c.166 0 .315.07.428.194.114.123.167.282.14.45l-1.12 10.28z"/>
</svg>
