<svg width="20" height="20" xmlns="http://www.w3.org/2000/svg">
 <style type="text/css">.st0{fill:#6D6F94;}</style>

 <g>
  <title>background</title>
  <rect fill="none" id="canvas_background" height="22" width="22" y="-1" x="-1"/>
 </g>
 <g>
  <title>Layer 1</title>
  <g id="svg_1">
   <path id="svg_2" d="m8.672088,18.191867c-0.62,0.62 -1.34,1.03 -2.17,1.24s-1.66,0.21 -2.49,0s-1.55,-0.63 -2.17,-1.24s-1.03,-1.34 -1.24,-2.17s-0.21,-1.66 0,-2.49s0.63,-1.55 1.24,-2.17l3.08,-3.08c0.12,-0.12 0.28,-0.15 0.46,-0.07s0.28,0.2 0.28,0.39s0.01,0.36 0.04,0.52s-0.01,0.29 -0.11,0.39l-2.78,2.82c-0.69,0.67 -1.04,1.48 -1.04,2.45s0.34,1.79 1.02,2.47s1.5,1.02 2.47,1.02s1.78,-0.35 2.45,-1.04l2.97,-2.93c0.67,-0.69 1,-1.52 1,-2.47s-0.33,-1.78 -1,-2.47c-0.3,-0.3 -0.64,-0.53 -1.04,-0.71c-0.2,-0.07 -0.29,-0.21 -0.28,-0.41s0.06,-0.4 0.13,-0.59c0.02,-0.12 0.1,-0.21 0.22,-0.26s0.25,-0.05 0.37,0c0.57,0.25 1.08,0.59 1.52,1.04c0.62,0.62 1.04,1.34 1.26,2.17s0.22,1.66 0,2.49s-0.64,1.55 -1.26,2.17l-2.93,2.93zm1.11,-5.38c0.12,0.05 0.25,0.05 0.37,0s0.2,-0.14 0.22,-0.26c0.07,-0.2 0.12,-0.4 0.13,-0.59s-0.08,-0.33 -0.28,-0.41c-0.4,-0.17 -0.74,-0.41 -1.04,-0.71c-0.67,-0.69 -1,-1.52 -1,-2.47s0.33,-1.78 1,-2.47l2.97,-2.93c0.67,-0.69 1.48,-1.04 2.45,-1.04s1.79,0.34 2.47,1.02c0.68,0.68 1.02,1.5 1.02,2.47s-0.35,1.78 -1.04,2.45l-2.78,2.82c-0.1,0.1 -0.14,0.23 -0.11,0.39s0.04,0.33 0.04,0.52s0.09,0.32 0.28,0.39s0.34,0.05 0.46,-0.07l3.08,-3.08c0.62,-0.62 1.03,-1.34 1.24,-2.17c0.21,-0.83 0.21,-1.66 0,-2.49c-0.21,-0.83 -0.63,-1.55 -1.24,-2.17c-0.62,-0.62 -1.34,-1.03 -2.17,-1.24c-0.83,-0.21 -1.66,-0.21 -2.49,0s-1.55,0.63 -2.17,1.24l-2.93,2.93c-0.62,0.62 -1.04,1.34 -1.26,2.17s-0.22,1.66 0,2.49s0.64,1.55 1.26,2.17c0.45,0.45 0.95,0.79 1.52,1.04z" class="st0"/>
  </g>
 </g>
</svg>