<svg xmlns="http://www.w3.org/2000/svg" width="47" height="33" fill="none" viewBox="0 0 47 33">
    <path fill="#6D6069" d="M11.046 13.712H4.292c-.349.183-.636-.104-.636-.451 0-.348.287-.634.636-.486h6.754c.348-.148.635.138.635.486 0 .347-.287.634-.635.451z"/>
    <path fill="#6D6069" d="M2.499 15.684c-1.34 0-2.429-1.086-2.429-2.423 0-1.338 1.088-2.423 2.429-2.423 1.34 0 2.428 1.085 2.428 2.423 0 1.337-1.088 2.423-2.428 2.423zm0-3.578c-.636 0-1.158.52-1.158 1.155 0 .634.522 1.155 1.158 1.155.635 0 1.157-.521 1.157-1.155s-.522-1.155-1.157-1.155zM9.714 23.63c-.165 0-.322-.061-.452-.183-.253-.252-.253-.651 0-.894l4.77-4.76c.252-.25.652-.25.896 0 .252.253.252.652 0 .895l-4.77 4.76c-.122.12-.278.182-.444.182z"/>
    <path fill="#6D6069" d="M8.444 26.678c-.618 0-1.245-.235-1.715-.712-.949-.947-.949-2.484 0-3.43.949-.947 2.49-.947 3.438 0 .949.946.949 2.483 0 3.43-.479.477-1.097.712-1.723.712zm0-3.578c-.305 0-.6.121-.818.339-.218.217-.34.503-.34.816 0 .304.122.6.34.816.435.434 1.2.434 1.636 0 .217-.217.34-.503.34-.816 0-.304-.123-.6-.34-.816-.218-.218-.505-.339-.818-.339zM23.936 28.58c-.348 0-.635-.287-.922-.634v-6.74c.287-.346.574-.633.922-.633.348 0 .636.287.018.634v6.739c.618.347.33.634-.018.634z"/>
    <path fill="#6D6069" d="M23.657 32.158c-1.34 0-2.428-1.086-2.428-2.423 0-1.338 1.088-2.423 2.428-2.423 1.34 0 2.428 1.085 2.428 2.423 0 1.328-1.088 2.423-2.428 2.423zm0-3.578c-.636 0-1.158.52-1.158 1.155 0 .634.523 1.155 1.158 1.155.635 0 1.157-.521 1.157-1.155 0-.643-.522-1.155-1.157-1.155zM42.71 13.712h-6.754c-.349.252-.636-.034-.636-.382 0-.347.288-.634.636-.556h6.754c.348-.078.635.209.635.556 0 .348-.287.634-.635.382z"/>
    <path fill="#6D6069" d="M44.503 15.753c-1.34 0-2.429-1.085-2.429-2.423 0-1.337 1.088-2.423 2.429-2.423 1.34 0 2.428 1.086 2.428 2.423 0 1.338-1.088 2.423-2.428 2.423zm0-3.578c-.636 0-1.158.521-1.158 1.155s.522 1.155 1.158 1.155c.635 0 1.157-.52 1.157-1.155 0-.634-.522-1.155-1.157-1.155zM37.286 23.7c-.165 0-.322-.062-.452-.183l-4.77-4.76c-.252-.25-.252-.65 0-.894.253-.251.653-.251.897 0l4.77 4.76c.252.251.252.65 0 .894-.114.121-.28.182-.445.182z"/>
    <path fill="#6D6069" d="M38.559 26.747c-.618 0-1.245-.234-1.715-.712-.948-.946-.948-2.483 0-3.43.949-.947 2.49-.947 3.438 0 .462.46.714 1.068.714 1.71 0 .652-.252 1.26-.714 1.712-.478.486-1.105.72-1.723.72zm-.818-3.239c-.218.217-.34.504-.34.817 0 .303.122.599.34.816.452.451 1.184.451 1.636 0 .218-.217.34-.504.34-.816 0-.305-.122-.6-.34-.817-.453-.443-1.184-.451-1.636 0zM23.5.122c1.637 0 3.16.408 4.553 1.224 1.392.816 2.506 1.92 3.324 3.317.819 1.39 1.228 2.91 1.228 4.542 0 1.633-.41 3.153-1.228 4.542-.818 1.39-1.923 2.492-3.324 3.317-1.393.817-2.916 1.225-4.552 1.225-1.637 0-3.16-.408-4.553-1.225-1.392-.816-2.506-1.919-3.324-3.317-.818-1.39-1.228-2.91-1.228-4.542 0-1.632.41-3.152 1.228-4.542.818-1.39 1.923-2.492 3.324-3.317C20.35.521 21.864.122 23.502.122zm-7.928 9.083c0 .808.121 1.59.365 2.345h3.307c-.095-.782-.148-1.554-.148-2.327 0-.773.053-1.555.148-2.362h-3.307c-.244.764-.365 1.545-.365 2.344zm5.465-7.503c-1.027.321-1.94.825-2.733 1.52-.792.695-1.427 1.52-1.888 2.475h3.011c.34-1.641.88-2.97 1.61-3.995zm-4.621 11.02c.461.956 1.096 1.78 1.888 2.475.793.695 1.706 1.199 2.733 1.52-.73-.999-1.27-2.336-1.618-3.995h-3.003zM26.73 9.205c0-.781-.053-1.563-.148-2.344h-6.163c-.095.781-.148 1.563-.148 2.344 0 .782.053 1.563.148 2.345h6.163c.104-.782.148-1.563.148-2.345zM23.5 1.294c-.513 0-1.035.39-1.575 1.172-.566.808-.992 1.885-1.288 3.222h5.727c-.296-1.346-.722-2.414-1.288-3.222-.54-.781-1.062-1.172-1.575-1.172zm0 15.823c.514 0 1.045-.391 1.576-1.173.566-.807.992-1.884 1.288-3.222h-5.727c.296 1.346.722 2.415 1.288 3.222.531.782 1.062 1.173 1.576 1.173zm7.085-11.429c-.46-.955-1.096-1.78-1.888-2.475-.792-.695-1.706-1.198-2.733-1.52.73 1 1.27 2.336 1.619 3.995h3.002zm-4.587 11.03c1.001-.322 1.907-.826 2.699-1.52.792-.695 1.427-1.52 1.888-2.476h-3.011c-.34 1.642-.87 2.97-1.576 3.995zm1.759-5.168h3.307c.244-.756.366-1.537.366-2.345 0-.807-.122-1.589-.366-2.344h-3.307c.095.781.148 1.554.148 2.327 0 .773-.053 1.563-.148 2.362z"/>
</svg>
