<svg xmlns="http://www.w3.org/2000/svg" width="26" height="26" fill="none" viewBox="0 0 26 26">
    <path stroke="#757F88" stroke-linecap="round" stroke-linejoin="round" stroke-width="1.5" d="M11.191 17.976H4.365M14.236 7.475h6.826"/>
    <path fill-rule="evenodd" stroke="#757F88" stroke-linecap="round" stroke-linejoin="round" stroke-width="1.5" d="M9.454 7.417c0-1.404-1.146-2.542-2.56-2.542-1.414 0-2.56 1.138-2.56 2.542 0 1.403 1.146 2.542 2.56 2.542 1.414 0 2.56-1.139 2.56-2.542zM21.667 17.933c0-1.403-1.145-2.541-2.56-2.541-1.414 0-2.56 1.138-2.56 2.541 0 1.404 1.146 2.542 2.56 2.542 1.415 0 2.56-1.138 2.56-2.542z" clip-rule="evenodd"/>
</svg>
