<svg width="52" height="51" viewBox="0 0 52 51" fill="none" xmlns="http://www.w3.org/2000/svg">
<path d="M35.1818 16.0039L35.2025 16.0176C35.2977 16.0809 35.3759 16.1665 35.43 16.267C35.4841 16.3674 35.5125 16.4796 35.5126 16.5936V16.5938V25.5V25.5C35.5126 25.6387 35.4708 25.7742 35.3925 25.8889C35.3333 25.9759 35.2553 26.0479 35.1648 26.1L35.1698 26.1124L35.0717 26.1449L35.0709 26.1453L35.0628 26.1493L35.0626 26.149L35.0356 26.1595C35.0217 26.165 35.0077 26.1704 34.9937 26.1759L34.9817 26.1807L34.9816 26.1806C34.8412 26.2355 34.6999 26.2882 34.5578 26.3387C34.5578 26.3387 34.5577 26.3388 34.5577 26.3388L34.5242 26.2446C34.2085 26.3574 33.7696 26.5094 33.2722 26.6602C32.2964 26.9594 31.0252 27.2812 30.0315 27.2812C29.0187 27.2812 28.1804 26.9488 27.451 26.6578L35.1818 16.0039ZM35.1818 16.0039L35.1571 16.0014L34.5975 15.9456L34.5975 15.9451H34.5875H34.5863H34.5629L34.542 15.9555L34.5245 15.9619L34.5245 15.9619L34.5224 15.9627C33.9941 16.1697 33.4583 16.3574 32.9162 16.5255C31.9617 16.8185 30.8525 17.0875 30.0315 17.0875C29.2498 17.0875 28.6184 16.8435 27.8738 16.5451C27.8736 16.545 27.8734 16.5449 27.8732 16.5449L27.823 16.524L27.823 16.524L27.8219 16.5235L27.8188 16.5223C27.1065 16.2355 26.2729 15.9 25.2483 15.9C24.2396 15.9 22.9548 16.2272 21.9786 16.5242M35.1818 16.0039L27.4157 26.7514M27.4157 26.7514L27.3841 26.7402L27.3804 26.7389L27.3804 26.7388C26.6206 26.4353 25.9918 26.1938 25.2483 26.1938C24.4273 26.1938 23.318 26.4628 22.3635 26.7558C21.9597 26.8808 21.5594 27.0166 21.163 27.1632V34.4062C21.163 34.5905 21.0893 34.767 20.9583 34.8971C20.8274 35.0271 20.65 35.1 20.4651 35.1C20.2802 35.1 20.1028 35.0271 19.9718 34.8971C19.8409 34.767 19.7672 34.5905 19.7672 34.4062V16.5938C19.7672 16.4095 19.8409 16.233 19.9718 16.1029C20.1028 15.9729 20.2802 15.9 20.4651 15.9C20.65 15.9 20.8274 15.9729 20.9583 16.1029C21.0893 16.233 21.163 16.4095 21.163 16.5938V16.7884C21.4047 16.7057 21.6814 16.6145 21.9786 16.5242M27.4157 26.7514C28.1439 27.0418 28.998 27.3813 30.0315 27.3813C31.0414 27.3813 32.3249 27.0553 33.3014 26.7558L27.4157 26.7514ZM21.9786 16.5242L22.0077 16.6199M21.9786 16.5242L22.0077 16.6199M22.0077 16.6199C22.9835 16.323 24.2558 16 25.2483 16C26.2528 16 27.0707 16.3289 27.7846 16.6163L21.163 16.8941C21.4115 16.8088 21.6985 16.7139 22.0077 16.6199ZM27.3505 17.829L27.3505 17.829L27.3527 17.8298L27.3608 17.8328C27.3609 17.8329 27.3609 17.8329 27.361 17.8329C28.0909 18.1271 28.9511 18.4738 30.0315 18.4738C31.0783 18.4738 32.3605 18.1479 33.3302 17.8483C33.6178 17.7605 33.8833 17.6718 34.1168 17.5908V25.0203C33.7115 25.1674 33.3025 25.3041 32.8902 25.4305C31.9233 25.726 30.8141 25.9937 30.0315 25.9937C29.2881 25.9937 28.6593 25.7522 27.8994 25.4487L27.8995 25.4486L27.8958 25.4473L27.8641 25.4361C27.136 25.1457 26.2818 24.8062 25.2483 24.8062C24.2015 24.8062 22.9195 25.1309 21.9495 25.4318C21.662 25.5196 21.3965 25.6082 21.163 25.6892V18.2609C21.5683 18.1139 21.9774 17.9771 22.3897 17.8507C23.3566 17.5552 24.4645 17.2875 25.2483 17.2875C25.9903 17.2875 26.5984 17.5288 27.3505 17.829Z" fill="#757F88" stroke="#757F88" stroke-width="0.2"/>
</svg>
