<svg xmlns="http://www.w3.org/2000/svg" width="25" height="26" fill="none" viewBox="0 0 25 26">
    <path stroke="#8B90A1" stroke-miterlimit="10" stroke-width="1.5" d="M10.5 4.5c-1.483 0-2.933.44-4.167 1.264C5.1 6.588 4.14 7.759 3.571 9.13c-.568 1.37-.716 2.878-.427 4.333.29 1.455 1.004 2.791 2.053 3.84 1.049 1.05 2.385 1.764 3.84 2.053 1.455.29 2.963.14 4.333-.427 1.37-.568 2.542-1.529 3.366-2.762C17.56 14.933 18 13.483 18 12c0-1.99-.79-3.897-2.197-5.303C14.397 5.29 12.49 4.5 10.5 4.5z"/>
    <path stroke="#8B90A1" stroke-linecap="round" stroke-miterlimit="10" stroke-width="1.5" d="M8.295 9.764s.034-.767.793-1.427c.45-.393.99-.506 1.476-.514.443-.006.838.073 1.075.195.405.209 1.194.718 1.194 1.801 0 1.14-.69 1.658-1.474 2.227-.785.57-.998 1.188-.998 1.827"/>
    <path fill="#303030" stroke="#8B90A1" stroke-width="1.5" d="M10.57 16.142v.002h-.001l-.002.002c0 .002-.002.002-.002.002h0-.004 0l-.002-.002c-.002 0-.002-.002-.002-.002h0v-.004h0l.002-.003.002-.001h.004l.002.002c.002 0 .002.002.002.002h0v.002z"/>
</svg>
