<svg xmlns="http://www.w3.org/2000/svg" width="23" height="23" fill="none" viewBox="0 0 23 23">
    <path fill="#414040" fill-rule="evenodd" d="M21.803 13.373H1.678c-.397 0-.719-.322-.719-.718 0-.397.322-.72.719-.72h20.125c.396 0 .718.323.718.72 0 .396-.322.718-.718.718zM20.012 9.339c-.397 0-.72-.322-.72-.719V7.17c0-1.575-1.282-2.857-2.858-2.857H15.28c-.396 0-.719-.322-.719-.72 0-.396.322-.718.72-.718h1.154c2.37 0 4.296 1.927 4.296 4.294V8.62c0 .397-.322.719-.718.719zM3.47 9.339c-.396 0-.718-.322-.718-.719V7.17c0-2.368 1.927-4.295 4.296-4.295h1.185c.396 0 .718.322.718.719 0 .397-.322.719-.718.719H7.048c-1.576 0-2.859 1.282-2.859 2.856V8.62c0 .397-.322.719-.718.719z" clip-rule="evenodd"/>
    <path fill="#414040" fill-rule="evenodd" d="M16.434 20.854H15.28c-.396 0-.719-.322-.719-.719 0-.397.322-.719.72-.719h1.154c1.576 0 2.859-1.282 2.859-2.857v-3.906c0-.396.322-.718.719-.718.396 0 .718.322.718.718v3.906c0 2.368-1.927 4.295-4.296 4.295zM8.23 20.854H7.047c-2.369 0-4.296-1.927-4.296-4.295v-3.906c0-.396.322-.718.719-.718.397 0 .719.322.719.718v3.906c0 1.575 1.282 2.857 2.858 2.857h1.185c.396 0 .718.322.718.72 0 .396-.322.718-.718.718z" clip-rule="evenodd"/>
    <mask id="ul55rezu4a" width="14" height="4" x="5" y="13" maskUnits="userSpaceOnUse">
        <path fill="#fff" fill-rule="evenodd" d="M5.412 13.53h13.53v2.705H5.412V13.53z" clip-rule="evenodd"/>
    </mask>
    <g fill="#414040" mask="url(#ul55rezu4a)">
        <path fill-rule="evenodd" d="M12.057 15.413c-2.788 0-4.2.452-4.2 1.345 0 .9 1.412 1.357 4.2 1.357 2.787 0 4.2-.452 4.2-1.345 0-.9-1.413-1.357-4.2-1.357zm0 3.629c-1.282 0-5.182 0-5.182-2.284 0-2.037 2.958-2.272 5.182-2.272 1.282 0 5.18 0 5.18 2.284 0 2.037-2.956 2.272-5.18 2.272z" clip-rule="evenodd"/>
        <path d="M12.057 15.313c-1.397 0-2.46.113-3.176.342-.712.228-1.125.587-1.125 1.103h.2c0-.377.294-.691.986-.912.686-.22 1.724-.333 3.115-.333v-.2zm-4.3 1.445c0 .519.411.881 1.123 1.111.717.232 1.78.346 3.177.346v-.2c-1.391 0-2.429-.114-3.115-.336-.691-.223-.986-.54-.986-.921h-.2zm4.3 1.457c1.396 0 2.459-.113 3.175-.342.712-.228 1.124-.587 1.124-1.103h-.2c0 .377-.293.69-.985.912-.686.22-1.723.333-3.114.333v.2zm4.3-1.445c0-.519-.412-.881-1.124-1.112-.717-.231-1.78-.345-3.176-.345v.2c1.39 0 2.428.114 3.114.336.69.223.985.54.985.921h.2zm-4.3 2.172c-.642 0-1.926 0-3.047-.282-.561-.142-1.072-.35-1.442-.659-.365-.304-.593-.706-.593-1.243h-.2c0 .604.26 1.06.665 1.397.403.335.947.554 1.521.698 1.15.29 2.457.289 3.096.289v-.2zm-5.082-2.184c0-.482.174-.853.467-1.143.296-.293.719-.507 1.22-.661 1.001-.309 2.283-.368 3.395-.368v-.2c-1.113 0-2.421.058-3.455.377-.517.159-.973.385-1.3.71-.33.326-.527.748-.527 1.285h.2zm5.082-2.172c.642 0 1.925 0 3.047.282.56.141 1.071.35 1.44.658.366.305.594.706.594 1.244h.2c0-.604-.26-1.06-.666-1.397-.401-.335-.945-.554-1.52-.699-1.148-.289-2.455-.288-3.095-.288v.2zm5.08 2.184c0 .482-.173.853-.466 1.143-.296.293-.719.507-1.22.661-1 .309-2.283.368-3.394.368v.2c1.112 0 2.42-.058 3.454-.377.517-.159.973-.386 1.3-.71.33-.326.527-.748.527-1.285h-.2z"/>
    </g>
    <mask id="7l596se6tb" width="9" height="11" x="8" y="2" maskUnits="userSpaceOnUse">
        <path fill="#fff" fill-rule="evenodd" d="M8.117 2.706h8.118v9.47H8.117v-9.47z" clip-rule="evenodd"/>
    </mask>
    <g fill="#414040" mask="url(#7l596se6tb)">
        <path fill-rule="evenodd" d="M12.056 4.941c-1.4 0-2.54 1.076-2.54 2.399-.005 1.318 1.126 2.393 2.521 2.398l.019.442v-.442c1.4 0 2.539-1.076 2.539-2.398 0-1.323-1.139-2.399-2.54-2.399zm0 5.679h-.02c-1.912-.005-3.46-1.478-3.454-3.282 0-1.807 1.558-3.28 3.475-3.28 1.915 0 3.473 1.473 3.473 3.282s-1.558 3.28-3.473 3.28z" clip-rule="evenodd"/>
        <path d="M9.516 7.34h.1-.1zm2.521 2.398l.1-.004-.004-.095h-.096v.1zm.019.442l-.1.004.2-.004h-.1zm0-.442v-.1h-.1v.1h.1zm-.02.882v.1-.1zM8.582 7.338h.1-.1zm3.474-2.497c-1.45 0-2.64 1.115-2.64 2.499h.2c0-1.263 1.089-2.299 2.44-2.299v-.2zM9.416 7.34c-.005 1.38 1.176 2.494 2.62 2.5l.001-.2c-1.345-.005-2.426-1.04-2.421-2.299h-.2zm2.521 2.404l.019.44.2-.008-.02-.441-.199.009zm.219.437v-.442h-.2v.442h.2zm-.1-.342c1.45 0 2.639-1.115 2.639-2.498h-.2c0 1.261-1.089 2.298-2.44 2.298v.2zm2.639-2.498c0-1.384-1.19-2.499-2.64-2.499v.2c1.351 0 2.44 1.036 2.44 2.299h.2zm-2.638 3.18h-.021v.2h.02v-.2zm-.021 0c-1.862-.005-3.36-1.438-3.354-3.182h-.2c-.007 1.864 1.592 3.376 3.553 3.382l.001-.2zM8.682 7.338c0-1.747 1.508-3.18 3.375-3.18v-.2c-1.966 0-3.575 1.512-3.575 3.38h.2zm3.375-3.18c1.865 0 3.373 1.433 3.373 3.182h.2c0-1.87-1.608-3.381-3.573-3.381v.2zM15.43 7.34c0 1.748-1.508 3.18-3.373 3.18v.2c1.965 0 3.573-1.51 3.573-3.38h-.2z"/>
    </g>
</svg>
