<svg width="20" height="20" xmlns="http://www.w3.org/2000/svg">
 <style type="text/css">.st0{fill:#6D6F94;}</style>

 <g>
  <title>background</title>
  <rect fill="none" id="canvas_background" height="22" width="22" y="-1" x="-1"/>
 </g>
 <g>
  <title>Layer 1</title>
  <g id="svg_1">
   <path id="svg_2" d="m14.015379,1.958481l3.66,0c0.35,0 0.65,0.12 0.9,0.37s0.36,0.55 0.36,0.9l0,6.64c0,1.69 -0.46,3.22 -1.37,4.61c-0.84,1.27 -1.97,2.27 -3.38,3.02c-1.38,0.7 -2.79,1.05 -4.24,1.05s-2.84,-0.35 -4.2,-1.05c-1.43,-0.75 -2.57,-1.76 -3.41,-3.02c-0.93,-1.38 -1.4,-2.92 -1.4,-4.61c0.02,-0.47 0.04,-1.23 0.04,-2.29l-0.04,0l0,-1.12l0.04,0l-0.04,-3.23c0,-0.35 0.12,-0.65 0.37,-0.9s0.54,-0.37 0.9,-0.37l3.66,0c0.35,0 0.65,0.12 0.9,0.37s0.37,0.54 0.37,0.9l0,6.05c0,1.05 0.29,1.9 0.88,2.53c0.54,0.56 1.19,0.84 1.95,0.84s1.4,-0.28 1.92,-0.84c0.59,-0.63 0.88,-1.48 0.88,-2.53l0,-6.05c0,-0.35 0.12,-0.65 0.37,-0.9s0.53,-0.37 0.88,-0.37zm3.65,7.95c-0.02,-0.49 -0.04,-1.27 -0.04,-2.32l-3.62,0l0,1.69c0,1.41 -0.41,2.54 -1.23,3.41c-0.38,0.4 -0.81,0.7 -1.3,0.91s-1.01,0.32 -1.55,0.32s-1.05,-0.11 -1.55,-0.32s-0.93,-0.52 -1.3,-0.91c-0.82,-0.87 -1.23,-2 -1.23,-3.41l0,-1.69l-3.61,0c0,1.05 -0.01,1.83 -0.04,2.32c0,1.08 0.22,2.09 0.67,3.02c0.45,0.87 1.05,1.63 1.81,2.3s1.61,1.18 2.53,1.53s1.85,0.53 2.76,0.53s1.83,-0.18 2.74,-0.53s1.75,-0.86 2.51,-1.53s1.35,-1.44 1.78,-2.3c0.45,-0.94 0.67,-1.94 0.67,-3.02zm-15.43,-6.68l0,3.23l3.62,0l0,-3.23l-3.62,0zm11.78,3.23l3.62,0l0.04,-3.23l-3.66,0l0,3.23z" class="st0"/>
  </g>
 </g>
</svg>