<svg width="20.000000000000004" height="20.000000000000004" xmlns="http://www.w3.org/2000/svg">
 <style type="text/css">.st0{fill:#6D6F94;}</style>

 <g>
  <title>background</title>
  <rect fill="none" id="canvas_background" height="22" width="22" y="-1" x="-1"/>
 </g>
 <g>
  <title>Layer 1</title>
  <g id="svg_1">
   <path id="svg_2" d="m17.819301,6.711047c0.61,0 1.14,0.22 1.58,0.67s0.67,0.97 0.67,1.58l0,5.63c0,0.61 -0.22,1.14 -0.67,1.58s-0.97,0.67 -1.58,0.67l-1.13,0l0,1.83c0,0.12 -0.04,0.22 -0.12,0.3s-0.18,0.12 -0.28,0.12s-0.19,-0.02 -0.26,-0.07l-3.83,-2.18l-3.38,0c-0.61,0 -1.14,-0.22 -1.58,-0.67s-0.67,-0.97 -0.67,-1.58l0,-2.74l1.13,-0.63l0,3.38c0,0.3 0.11,0.57 0.33,0.79s0.49,0.33 0.79,0.33l3.69,0l3.06,1.76l0,-1.76l2.25,0c0.3,0 0.57,-0.11 0.79,-0.33s0.33,-0.5 0.33,-0.8l0,-5.63c0,-0.3 -0.11,-0.57 -0.33,-0.79s-0.49,-0.33 -0.79,-0.33l-3.38,0l0,1.13c0,0.61 -0.22,1.14 -0.67,1.58c-0.45,0.45 -0.97,0.67 -1.58,0.67l-4.5,0l-3.83,2.18c-0.07,0.05 -0.16,0.07 -0.26,0.07s-0.2,-0.04 -0.28,-0.12s-0.12,-0.18 -0.12,-0.3l0,-1.83l-1.13,0c-0.61,0 -1.14,-0.22 -1.58,-0.67c-0.45,-0.45 -0.67,-0.97 -0.67,-1.58l0,-5.63c0,-0.61 0.22,-1.14 0.67,-1.58s0.97,-0.67 1.58,-0.67l10.13,0c0.61,0 1.14,0.22 1.58,0.67s0.67,0.97 0.67,1.58l0,3.38l3.37,0l0,-0.01zm-4.5,2.25l0,-5.63c0,-0.3 -0.11,-0.57 -0.33,-0.79s-0.49,-0.33 -0.79,-0.33l-10.13,0c-0.3,0 -0.57,0.11 -0.79,0.33s-0.34,0.5 -0.34,0.8l0,5.63c0,0.3 0.11,0.57 0.33,0.79s0.49,0.33 0.8,0.33l2.25,0l0,1.76l3.09,-1.76l4.78,0c0.3,0 0.57,-0.11 0.79,-0.33s0.34,-0.49 0.34,-0.8z" class="st0"/>
  </g>
 </g>
</svg>