<svg xmlns="http://www.w3.org/2000/svg" width="37" height="37" fill="none" viewBox="0 0 37 37">
    <path fill="#736160" stroke="#84706F" stroke-miterlimit="10" stroke-width=".25" d="M18.553 36.666c-9.717 0-17.62-8.095-17.62-18.049C.934 8.663 8.837.57 18.554.57c9.717 0 17.619 8.094 17.619 18.048 0 9.954-7.902 18.05-17.62 18.05zm0-35.114c-9.189 0-16.668 7.662-16.668 17.074 0 9.413 7.48 17.074 16.668 17.074 9.188 0 16.667-7.661 16.667-17.074 0-9.421-7.479-17.074-16.667-17.074z"/>
    <path fill="#736160" stroke="#84706F" stroke-miterlimit="10" stroke-width=".25" d="M18.552 36.666c-4.237 0-7.814-6.326-8.51-15.034-.018-.271.176-.506.44-.524.265-.027.494.18.512.451.634 8.059 3.885 14.141 7.558 14.141 4.229 0 7.673-7.661 7.673-17.074 0-.595-.017-1.2-.044-1.787-.009-.27.194-.496.45-.514.255-.009.484.199.502.46.026.605.044 1.228.044 1.841 0 10.117-3.788 18.04-8.625 18.04zM26.05 12.21c-.22 0-.423-.162-.467-.388-1.216-6.146-4.044-10.27-7.03-10.27-2.22 0-4.343 2.202-5.823 6.028-.097.253-.37.37-.617.271-.247-.099-.361-.379-.264-.631 1.63-4.224 4.079-6.651 6.713-6.651 3.506 0 6.633 4.34 7.963 11.045.053.262-.114.524-.37.578-.044.009-.079.018-.105.018zM10.492 16.47h-.035c-.264-.018-.458-.253-.44-.524.079-1.128.211-2.238.387-3.312.044-.262.291-.442.546-.397.256.045.432.298.388.56-.176 1.037-.3 2.12-.379 3.221-.008.262-.22.451-.466.451z"/>
    <path fill="#736160" stroke="#84706F" stroke-miterlimit="10" stroke-width=".25" d="M18.554 11.948c-1.639 0-3.26-.234-4.828-.686-.256-.072-.397-.343-.326-.604.07-.262.335-.406.59-.334 1.48.433 3.013.65 4.564.65 4.316 0 8.377-1.67 11.496-4.711-3.11-3.041-7.18-4.71-11.496-4.71-4.317 0-8.378 1.669-11.497 4.71.705.686 1.463 1.308 2.264 1.859.22.153.282.451.132.677-.15.225-.44.289-.66.135-.987-.677-1.92-1.462-2.758-2.328-.185-.19-.185-.496 0-.686C9.374 2.473 13.814.578 18.554.578c4.73 0 9.18 1.895 12.518 5.342.185.19.185.496 0 .686-3.339 3.447-7.788 5.342-12.518 5.342zM18.554 36.666c-4.731 0-9.18-1.895-12.519-5.342-.185-.19-.185-.497 0-.686 2.59-2.68 5.867-4.431 9.47-5.08.265-.046.503.134.556.396.044.262-.133.515-.388.569-3.25.577-6.22 2.12-8.616 4.458 3.11 3.041 7.18 4.71 11.497 4.71 4.316 0 8.386-1.669 11.496-4.71-2.255-2.202-5.039-3.71-8.087-4.359-.256-.054-.423-.316-.37-.578.053-.261.308-.433.564-.379 3.383.722 6.466 2.437 8.906 4.964.185.19.185.496 0 .686-3.33 3.456-7.779 5.351-12.51 5.351zM35.697 19.114H13.603c-.265 0-.476-.217-.476-.488 0-.27.211-.487.476-.487h22.094c.264 0 .476.217.476.487 0 .271-.212.488-.476.488zM7.294 19.114H1.41c-.264 0-.475-.217-.475-.488 0-.27.211-.487.475-.487h5.876c.265 0 .476.217.476.487 0 .271-.211.488-.467.488z"/>
    <path fill="#736160" stroke="#84706F" stroke-miterlimit="10" stroke-width=".25" d="M11.417 11.605c-.899 0-1.63-.749-1.63-1.67 0-.92.731-1.669 1.63-1.669.898 0 1.63.75 1.63 1.67 0 .92-.732 1.67-1.63 1.67zm0-2.364c-.379 0-.678.316-.678.695 0 .388.308.695.678.695.379 0 .678-.316.678-.695 0-.388-.3-.695-.678-.695zM26.366 15.964c-.898 0-1.63-.749-1.63-1.67 0-.92.732-1.669 1.63-1.669.899 0 1.63.75 1.63 1.67.009.92-.723 1.67-1.63 1.67zm0-2.364c-.379 0-.678.316-.678.695 0 .388.308.694.678.694.379 0 .678-.315.678-.694.01-.388-.3-.695-.678-.695zM18.702 27.452c-.899 0-1.63-.749-1.63-1.67 0-.92.732-1.669 1.63-1.669.899 0 1.63.75 1.63 1.67 0 .92-.731 1.67-1.63 1.67zm0-2.364c-.379 0-.678.316-.678.695 0 .388.308.694.678.694.379 0 .678-.315.678-.694 0-.388-.308-.695-.678-.695zM30.727 26.27c-.898 0-1.63-.749-1.63-1.67 0-.92.732-1.669 1.63-1.669.899 0 1.63.749 1.63 1.67 0 .92-.731 1.669-1.63 1.669zm0-2.373c-.378 0-.678.315-.678.695 0 .388.308.694.678.694.38 0 .679-.316.679-.695 0-.379-.3-.694-.679-.694zM10.403 20.296c-.898 0-1.63-.75-1.63-1.67 0-.92.732-1.67 1.63-1.67.899 0 1.63.75 1.63 1.67 0 .92-.731 1.67-1.63 1.67zm0-2.373c-.379 0-.678.315-.678.694 0 .38.308.695.678.695.379 0 .678-.316.678-.695 0-.379-.308-.695-.678-.695z"/>
</svg>
