<svg xmlns="http://www.w3.org/2000/svg" width="41" height="41" fill="none" viewBox="0 0 41 41">
    <path fill="#7D6939" d="M33.605 18.472c.5.5.745 1.089.745 1.767v4.637c0 .186-.06.335-.179.454-.119.12-.268.18-.454.18h-.709c.052.208.082.417.082.626 0 .864-.305 1.602-.924 2.221s-1.357.924-2.221.924c-.865 0-1.603-.305-2.222-.924s-.924-1.357-.924-2.221c0-.21.03-.418.082-.627h-6.448c.052.21.082.418.082.627 0 .864-.306 1.602-.925 2.221s-1.357.924-2.221.924c-.5 0-.97-.111-1.417-.335-.447-.224-.812-.53-1.103-.924-.29.395-.656.7-1.103.924-.447.224-.917.335-1.417.335-.864 0-1.602-.305-2.221-.924S9.184 27 9.184 26.136V12.934c0-.343.126-.634.372-.887.246-.254.545-.373.887-.373h15.722c.343 0 .634.127.887.373.254.245.373.544.373.887v2.52h2.08c.708 0 1.312.245 1.811.745l2.289 2.273zm-7.432 5.785V12.934H10.45v10.69c.574-.418 1.207-.627 1.886-.627.5 0 .969.112 1.416.336.447.223.813.529 1.104.924.313-.395.685-.7 1.118-.924.432-.224.894-.336 1.394-.336.5 0 .961.112 1.394.336.432.223.805.529 1.118.924h6.291zm-13.836 3.772c.522 0 .969-.186 1.334-.552.366-.365.552-.812.552-1.334s-.187-.969-.552-1.334c-.365-.366-.812-.552-1.334-.552s-.97.186-1.335.552c-.365.365-.551.812-.551 1.334s.186.97.551 1.334c.366.366.813.552 1.335.552zm5.032 0c.521 0 .969-.186 1.334-.552.365-.365.552-.812.552-1.334s-.187-.969-.552-1.334c-.365-.366-.813-.552-1.334-.552-.522 0-.97.186-1.335.552-.365.365-.551.812-.551 1.334s.186.97.551 1.334c.366.366.813.552 1.335.552zm12.188-11.323h-2.125v2.52h5.151l-2.161-2.163c-.239-.238-.522-.357-.865-.357zm3.533 7.551v-3.772h-5.658v3.772c.313-.395.686-.7 1.119-.924.432-.224.902-.336 1.394-.336.491 0 .961.112 1.393.336.433.223.806.529 1.119.924h.633zm-3.138 3.772c.522 0 .969-.186 1.334-.552.366-.365.552-.812.552-1.334s-.186-.969-.552-1.334c-.365-.366-.812-.552-1.334-.552s-.97.186-1.334.552c-.366.365-.552.812-.552 1.334s.186.97.552 1.334c.365.366.805.552 1.334.552zM19.255 40.27c-.782-.037-1.565-.12-2.325-.238l.238-1.469c.708.112 1.431.186 2.154.224l-.067 1.483zm2.341-.03l-.104-1.483c.715-.052 1.438-.15 2.147-.283l.275 1.46c-.76.15-1.535.254-2.318.306zm-6.948-.715c-.752-.216-1.49-.477-2.206-.776l.574-1.379c.663.276 1.35.515 2.042.716l-.41 1.439zm11.54-.15l-.447-1.423c.693-.216 1.371-.477 2.027-.768l.604 1.364c-.7.313-1.439.59-2.184.828zm-15.856-1.647c-.678-.38-1.342-.805-1.968-1.26l.872-1.207c.582.425 1.2.82 1.827 1.17l-.73 1.297zm20.12-.253l-.76-1.282c.618-.373 1.222-.776 1.796-1.215l.902 1.185c-.611.47-1.267.91-1.938 1.312zm-23.9-2.49c-.573-.522-1.117-1.088-1.632-1.677l1.126-.977c.47.544.976 1.066 1.506 1.55l-1 1.104zm27.612-.35l-1.036-1.074c.515-.5 1.007-1.036 1.461-1.595l1.156.947c-.492.603-1.021 1.177-1.58 1.722zm-30.66-3.183c-.44-.65-.843-1.32-1.193-2.013l1.327-.686c.328.641.7 1.267 1.103 1.864l-1.237.834zm33.62-.433l-1.253-.805c.388-.604.746-1.237 1.059-1.886l1.342.656c-.343.693-.73 1.38-1.148 2.035zM1.349 27.3c-.275-.723-.506-1.476-.7-2.229l1.446-.365c.171.7.395 1.394.648 2.065l-1.394.53zm37.817-.477l-1.408-.492c.238-.678.44-1.379.596-2.08l1.453.328c-.163.753-.38 1.514-.64 2.244zM.216 22.767C.12 21.999.06 21.209.045 20.434l1.49-.023c.008.723.06 1.447.157 2.162l-1.476.194zm39.972-.507l-1.484-.157c.067-.633.097-1.282.097-1.923v-.238l1.491-.015v.253c.008.694-.03 1.394-.104 2.08zM1.633 18.25L.149 18.1c.082-.775.202-1.55.373-2.31l1.454.32c-.157.708-.269 1.424-.343 2.14zm37.019-.47c-.09-.716-.224-1.431-.403-2.132l1.447-.358c.186.753.335 1.528.432 2.296l-1.476.194zm-36.08-3.75l-1.409-.492c.254-.73.56-1.46.902-2.162l1.342.656c-.32.649-.596 1.32-.835 1.998zm35.036-.447c-.253-.678-.551-1.342-.88-1.983l1.328-.686c.358.686.678 1.41.946 2.14l-1.394.529zM4.465 10.139l-1.26-.805c.217-.336.448-.671.686-1.007.224-.305.448-.603.686-.894l1.156.94c-.216.268-.433.543-.634.827-.224.32-.44.626-.634.939zm31.16-.403c-.402-.596-.842-1.177-1.312-1.722l1.134-.969c.506.59.984 1.215 1.423 1.864l-1.244.827zM7.195 6.784L6.158 5.718c.559-.544 1.155-1.058 1.774-1.528l.91 1.185c-.582.433-1.126.91-1.648 1.41zm25.606-.32c-.53-.485-1.088-.947-1.677-1.372l.388-.633.44-.597-.44.597.454-.59c.664.478 1.268.977 1.834 1.499L32.8 6.464zM10.623 4.153l-.76-1.282c.67-.395 1.364-.76 2.08-1.081l.61 1.364c-.663.298-1.311.634-1.93.999zm18.629-.261c-.626-.35-1.282-.67-1.946-.947l.574-1.379c.716.298 1.424.641 2.102 1.021l-.73 1.305zM14.574 2.386L14.127.962c.738-.23 1.505-.425 2.266-.574l.283 1.461c-.708.15-1.416.328-2.102.537zm10.69-.156c-.694-.194-1.402-.35-2.117-.47l.238-1.469c.768.127 1.536.291 2.289.507l-.41 1.432zm-6.441-.649L18.71.091c.492-.038.984-.03 1.476-.053.29 0 .574.007.865.015l-.067 1.49c-.276-.014-.53-.022-.82-.014-.44 0-.887.015-1.342.052z"/>
</svg>
