<svg xmlns="http://www.w3.org/2000/svg" width="39" height="43" fill="none" viewBox="0 0 39 43">
    <path fill="#7D6939" d="M19.119 25.55c-.356 0-.65-.292-.65-.644v-6.717c0-.353.294-.645.65-.645.355 0 .65.292.65.645v6.717c0 .352-.295.645-.65.645z"/>
    <path fill="#7D6939" d="M32.665 25.55c-.356 0-.65-.283-.65-.644v-.92c0-1.256-1.032-2.28-2.288-2.28H9.48c-1.265 0-2.296 1.024-2.296 2.28v.92c0 .352-.295.645-.65.645-.356 0-.65-.284-.65-.645v-.92c0-1.97 1.612-3.57 3.596-3.57h20.237c1.985 0 3.588 1.6 3.588 3.57v.92c.009.352-.286.645-.641.645zM7.782 42.828h-4.42c-1.811 0-3.276-1.84-3.276-4.094 0-1.118.737-1.995 1.673-1.995h7.626c.936 0 1.673.877 1.673 1.995 0 2.254-1.465 4.094-3.276 4.094zm-6.023-4.799c-.148 0-.373.284-.373.705 0 1.523.901 2.804 1.976 2.804h4.42c1.075 0 1.976-1.29 1.976-2.804 0-.421-.225-.705-.373-.705H1.76zM5.737 36.111h-.321c-1.872 0-3.389-1.513-3.389-3.362v-2.236c0-1.858 1.526-3.363 3.389-3.363h.32c1.873 0 3.39 1.514 3.39 3.363v2.236c0 1.849-1.517 3.362-3.39 3.362zm-.321-7.68c-1.153 0-2.089.93-2.089 2.073v2.236c0 1.144.936 2.073 2.089 2.073h.32c1.153 0 2.09-.929 2.09-2.073v-2.236c0-1.144-.937-2.072-2.09-2.072h-.32zM21.354 42.828h-4.42c-1.811 0-3.276-1.84-3.276-4.094 0-1.118.737-1.995 1.673-1.995h7.627c.936 0 1.672.877 1.672 1.995 0 2.254-1.464 4.094-3.276 4.094zm-6.023-4.799c-.147 0-.373.284-.373.705 0 1.523.902 2.804 1.976 2.804h4.42c1.075 0 1.976-1.29 1.976-2.804 0-.421-.225-.705-.372-.705H15.33zM19.284 36.111h-.321c-1.872 0-3.389-1.513-3.389-3.362v-2.236c0-1.858 1.526-3.363 3.389-3.363h.32c1.872 0 3.39 1.514 3.39 3.363v2.236c0 1.849-1.526 3.362-3.39 3.362zm-.33-7.68c-1.152 0-2.088.93-2.088 2.073v2.236c0 1.144.936 2.073 2.088 2.073h.32c1.154 0 2.09-.929 2.09-2.073v-2.236c0-1.144-.936-2.072-2.09-2.072h-.32zM21.354 15.944h-4.42c-1.811 0-3.276-1.84-3.276-4.093 0-1.118.737-1.995 1.673-1.995h7.627c.936 0 1.672.877 1.672 1.995 0 2.262-1.464 4.093-3.276 4.093zm-6.023-4.798c-.147 0-.373.283-.373.705 0 1.522.902 2.803 1.976 2.803h4.42c1.075 0 1.976-1.29 1.976-2.803 0-.422-.225-.705-.372-.705H15.33zM19.284 9.228h-.321c-1.872 0-3.389-1.514-3.389-3.363V3.63c0-1.857 1.526-3.362 3.389-3.362h.32c1.872 0 3.39 1.513 3.39 3.362v2.236c0 1.85-1.526 3.363-3.39 3.363zm-.33-7.68c-1.152 0-2.088.929-2.088 2.073v2.236c0 1.143.936 2.072 2.088 2.072h.32c1.154 0 2.09-.929 2.09-2.072V3.62c0-1.144-.936-2.073-2.09-2.073h-.32zM34.874 42.828h-4.42c-1.812 0-3.276-1.84-3.276-4.094 0-1.118.736-1.995 1.672-1.995h7.627c.936 0 1.673.877 1.673 1.995 0 2.254-1.474 4.094-3.276 4.094zm-6.024-4.799c-.147 0-.372.284-.372.705 0 1.523.901 2.804 1.976 2.804h4.42c1.074 0 1.976-1.29 1.976-2.804 0-.421-.226-.705-.373-.705H28.85zM32.82 36.111h-.32c-1.872 0-3.389-1.513-3.389-3.362v-2.236c0-1.858 1.526-3.363 3.389-3.363h.32c1.873 0 3.39 1.514 3.39 3.363v2.236c.008 1.849-1.517 3.362-3.39 3.362zm-.32-7.68c-1.153 0-2.089.93-2.089 2.073v2.236c0 1.144.936 2.073 2.089 2.073h.32c1.153 0 2.09-.929 2.09-2.073v-2.236c0-1.144-.937-2.072-2.09-2.072h-.32z"/>
</svg>
