<svg xmlns="http://www.w3.org/2000/svg" width="33" height="37" fill="none" viewBox="0 0 33 37">
    <path fill="#61555D" d="M20.846 36.364h-8.354l2.17-6.792h4.456l1.728 6.792zm-6.385-1.423h4.541l-1.008-3.946H15.72L14.46 34.94z"/>
    <path fill="#61555D" d="M19.242 30.995h-5.06v-5.901h5.06v5.9zm-3.63-1.424h2.18v-3.054h-2.18v3.055z"/>
    <path fill="#61555D" d="M17.428 26.517h-6.875v-7.41l1.2-.503 5.675 5.778v2.135zm-5.435-1.423h3.995v-.133l-3.995-4.07v4.203zM17.054 17.428c-4.638 0-8.411-3.738-8.411-8.32 0-4.583 3.773-8.32 8.411-8.32s8.411 3.728 8.411 8.32c0 4.582-3.773 8.32-8.411 8.32zm0-15.218c-3.84 0-6.971 3.093-6.971 6.898 0 3.804 3.13 6.897 6.971 6.897 3.84 0 6.971-3.093 6.971-6.897 0-3.805-3.13-6.898-6.971-6.898z"/>
    <path fill="#61555D" d="M23.766 26.517h-7.778v-2.173l6.568-5.72 1.21.455v7.438zm-6.337-1.424h4.897V20.73L17.429 25v.095z"/>
    <path fill="#61555D" d="M28.163 36.364H4.35c-2.074 0-3.754-1.66-3.754-3.71V25.18c0-1.546.94-2.903 2.4-3.463l8.373-3.207 3.793 3.606c.864.825 2.247.853 3.15.057l4.128-3.653.75.285 6.52 2.874c1.353.598 2.227 1.926 2.227 3.387v7.59c-.01 2.05-1.7 3.71-3.774 3.71zM11.023 20.17l-7.518 2.874c-.902.342-1.479 1.186-1.479 2.135v7.476c0 1.262 1.037 2.286 2.315 2.286h23.822c1.277 0 2.314-1.024 2.314-2.286v-7.59c0-.901-.537-1.717-1.373-2.087L22.73 20.16l-3.476 3.074c-1.46 1.29-3.697 1.252-5.109-.095l-3.12-2.97z"/>
    <path fill="#61555D" d="M29.383 34.941h-9.055v1.423h9.055v-1.423z"/>
</svg>
