<svg xmlns="http://www.w3.org/2000/svg" width="40" height="37" fill="none" viewBox="0 0 40 37">
    <g fill="#444E59" clip-path="url(#clip0)">
        <path d="M3.073 23.46c-1.277 0-2.31-1-2.31-2.236v-8.187c0-2.268 1.904-4.11 4.246-4.11.317 0 .577.252.577.56 0 .306-.26.558-.577.558-1.7 0-3.082 1.338-3.082 2.984v8.187c0 .614.52 1.118 1.154 1.118.635 0 1.155-.504 1.155-1.118v-6.337c0-.307.26-.56.577-.56.317 0 .578.253.578.56v6.345c-.008 1.228-1.041 2.236-2.318 2.236z"/>
        <path d="M8.693 36.803H4.806c-.317 0-.577-.252-.577-.559V18.972c0-.307.26-.559.577-.559.317 0 .577.252.577.56v16.704h2.733V22.232c0-.308.26-.56.577-.56.317 0 .577.252.577.56v14.012c0 .307-.26.56-.577.56zM8.694 7.628c-2.139 0-3.887-1.684-3.887-3.763 0-2.07 1.74-3.763 3.887-3.763 2.138 0 3.887 1.685 3.887 3.763 0 2.079-1.749 3.763-3.887 3.763zm0-6.4c-1.505 0-2.725 1.181-2.725 2.637 0 1.457 1.22 2.638 2.725 2.638 1.504 0 2.724-1.181 2.724-2.638 0-1.448-1.22-2.637-2.724-2.637zM37.456 23.475c-1.277 0-2.31-1-2.31-2.235v-6.345c0-.307.26-.56.578-.56.317 0 .577.252.577.56v6.345c0 .614.52 1.118 1.155 1.118.634 0 1.154-.504 1.154-1.118v-8.188c0-1.645-1.382-2.983-3.081-2.983-.318 0-.578-.252-.578-.56 0-.306.26-.558.578-.558 2.341 0 4.244 1.842 4.244 4.11v8.186c-.008 1.22-1.04 2.228-2.317 2.228z"/>
        <path d="M35.724 36.803h-3.887c-.317 0-.577-.252-.577-.559V22.247c0-.307.26-.559.577-.559.317 0 .577.252.577.56v13.437h2.733V18.996c0-.307.26-.559.577-.559.317 0 .578.252.578.559v17.248c.008.307-.253.56-.578.56zM16.076 10.092h-3.7c-.317 0-.577-.252-.577-.559 0-.307.26-.559.577-.559h3.7c.317 0 .578.252.578.56 0 .306-.253.558-.578.558zM28.153 10.116l-2.318-.008c-.317 0-.577-.252-.577-.559 0-.307.26-.559.577-.559l2.318.008c.317 0 .577.252.577.559 0 .307-.26.559-.577.559zM23.355 10.092h-2.48c-.318 0-.578-.252-.578-.559 0-.307.26-.559.577-.559h2.48c.318 0 .578.252.578.56 0 .306-.252.558-.577.558z"/>
        <path d="M18.395 10.092h-2.318c-.317 0-.577-.252-.577-.559 0-.307.26-.559.577-.559h2.318c.317 0 .577.252.577.56 0 .306-.26.558-.577.558zM12.58 36.803H8.693c-.318 0-.578-.252-.578-.559V22.271c0-.307.26-.56.578-.56.317 0 .577.253.577.56v13.407h2.732V13.115c0-.307.26-.559.578-.559.317 0 .577.252.577.56v23.128c0 .307-.26.56-.577.56zM22.501 13.682h-1.74c-.317 0-.577-.252-.577-.559 0-.307.26-.559.577-.559h1.74c.317 0 .577.252.577.56.009.314-.252.558-.577.558zM18.623 13.682h-2.155c-.317 0-.577-.252-.577-.559 0-.307.26-.559.577-.559h2.155c.317 0 .577.252.577.56 0 .306-.26.558-.577.558z"/>
        <path d="M14.32 13.674h-1.74c-.318 0-.578-.252-.578-.559 0-.307.26-.559.577-.559h1.74c.318 0 .578.252.578.56 0 .306-.26.558-.578.558zM31.837 36.803H27.95c-.318 0-.578-.252-.578-.559V13.69l-4.87-.008c-.318 0-.578-.252-.578-.559 0-.307.26-.559.577-.559l5.448.008c.318 0 .578.252.578.56v22.553h2.732v-13.39c0-.308.26-.56.578-.56.317 0 .577.253.577.56v13.95c.008.306-.252.558-.577.558zM31.836 7.652c-2.138 0-3.887-1.685-3.887-3.763S29.69.126 31.836.126c2.139 0 3.887 1.685 3.887 3.763s-1.74 3.763-3.887 3.763zm0-6.4c-1.504 0-2.724 1.18-2.724 2.637 0 1.456 1.22 2.637 2.724 2.637 1.505 0 2.724-1.18 2.724-2.637.009-1.456-1.22-2.637-2.724-2.637z"/>
    </g>
    <defs>
        <clipPath id="clip0">
            <path fill="#fff" d="M0 0H39.846V37H0z"/>
        </clipPath>
    </defs>
</svg>
