<svg width="33" height="33" viewBox="0 0 33 33" fill="none" xmlns="http://www.w3.org/2000/svg">
<path d="M21.6562 28.875C22.7953 28.875 23.7188 27.9516 23.7188 26.8125C23.7188 25.6734 22.7953 24.75 21.6562 24.75C20.5172 24.75 19.5938 25.6734 19.5938 26.8125C19.5938 27.9516 20.5172 28.875 21.6562 28.875Z" fill="white"/>
<path d="M21.6562 8.25C22.7953 8.25 23.7188 7.32659 23.7188 6.1875C23.7188 5.04841 22.7953 4.125 21.6562 4.125C20.5172 4.125 19.5938 5.04841 19.5938 6.1875C19.5938 7.32659 20.5172 8.25 21.6562 8.25Z" fill="white"/>
<path d="M4.125 18.5625C5.26409 18.5625 6.1875 17.6391 6.1875 16.5C6.1875 15.3609 5.26409 14.4375 4.125 14.4375C2.98591 14.4375 2.0625 15.3609 2.0625 16.5C2.0625 17.6391 2.98591 18.5625 4.125 18.5625Z" fill="white"/>
<path d="M28.875 12.375C27.963 12.3777 27.0776 12.6829 26.3576 13.2428C25.6377 13.8026 25.1238 14.5855 24.8964 15.4688H20.4786C20.3325 14.8872 20.0604 14.3448 19.6814 13.8801C19.3024 13.4154 18.8259 13.0398 18.2856 12.7797C17.7453 12.5196 17.1545 12.3816 16.5549 12.3752C15.9553 12.3689 15.3616 12.4945 14.816 12.7432L11.5397 8.6491C12.0786 7.94134 12.3719 7.07708 12.375 6.1875C12.375 5.37165 12.1331 4.57413 11.6798 3.89577C11.2266 3.21742 10.5823 2.68871 9.82857 2.3765C9.07483 2.06429 8.24543 1.9826 7.44525 2.14176C6.64508 2.30093 5.91008 2.69379 5.33319 3.27069C4.75629 3.84758 4.36343 4.58258 4.20426 5.38275C4.0451 6.18293 4.12679 7.01233 4.439 7.76607C4.75121 8.51982 5.27992 9.16405 5.95827 9.61731C6.63663 10.0706 7.43415 10.3125 8.25 10.3125C8.83149 10.3112 9.40599 10.1856 9.93506 9.94435L13.2103 14.0384C12.6689 14.7448 12.3755 15.61 12.3755 16.5C12.3755 17.39 12.6689 18.2552 13.2103 18.9616L9.93506 23.0557C9.40599 22.8144 8.83149 22.6889 8.25 22.6875C7.43415 22.6875 6.63663 22.9294 5.95827 23.3827C5.27992 23.836 4.75121 24.4802 4.439 25.2339C4.12679 25.9877 4.0451 26.8171 4.20426 27.6173C4.36343 28.4174 4.75629 29.1524 5.33319 29.7293C5.91008 30.3062 6.64508 30.6991 7.44525 30.8582C8.24543 31.0174 9.07483 30.9357 9.82857 30.6235C10.5823 30.3113 11.2266 29.7826 11.6798 29.1042C12.1331 28.4259 12.375 27.6284 12.375 26.8125C12.372 25.9229 12.0787 25.0586 11.5397 24.3509L14.8149 20.2568C15.3606 20.5057 15.9544 20.6314 16.5541 20.6252C17.1538 20.619 17.7448 20.4809 18.2853 20.2209C18.8257 19.9608 19.3023 19.585 19.6813 19.1202C20.0604 18.6554 20.3325 18.113 20.4786 17.5313H24.8964C25.0906 18.2764 25.4899 18.9521 26.0488 19.4818C26.6078 20.0114 27.304 20.3737 28.0585 20.5276C28.813 20.6814 29.5956 20.6206 30.3172 20.352C31.0389 20.0835 31.6708 19.6179 32.1412 19.0083C32.6116 18.3986 32.9017 17.6693 32.9784 16.9031C33.0551 16.1369 32.9155 15.3646 32.5753 14.6737C32.2352 13.9829 31.7081 13.4013 31.054 12.995C30.3999 12.5887 29.645 12.3739 28.875 12.375V12.375ZM6.1875 6.1875C6.1875 5.77958 6.30847 5.38082 6.5351 5.04164C6.76173 4.70246 7.08384 4.43811 7.46072 4.282C7.83759 4.12589 8.25229 4.08505 8.65238 4.16463C9.05246 4.24421 9.41996 4.44065 9.70841 4.72909C9.99686 5.01754 10.1933 5.38504 10.2729 5.78513C10.3525 6.18521 10.3116 6.59991 10.1555 6.97679C9.9994 7.35366 9.73504 7.67578 9.39587 7.90241C9.05669 8.12904 8.65793 8.25 8.25 8.25C7.70316 8.24946 7.17887 8.03198 6.7922 7.64531C6.40552 7.25863 6.18805 6.73434 6.1875 6.1875V6.1875ZM8.25 28.875C7.84208 28.875 7.44331 28.754 7.10414 28.5274C6.76496 28.3008 6.50061 27.9787 6.3445 27.6018C6.18839 27.2249 6.14755 26.8102 6.22713 26.4101C6.30671 26.01 6.50315 25.6425 6.79159 25.3541C7.08004 25.0657 7.44754 24.8692 7.84763 24.7896C8.24771 24.7101 8.66241 24.7509 9.03929 24.907C9.41616 25.0631 9.73828 25.3275 9.96491 25.6666C10.1915 26.0058 10.3125 26.4046 10.3125 26.8125C10.312 27.3593 10.0945 27.8836 9.70781 28.2703C9.32113 28.657 8.79684 28.8745 8.25 28.875ZM16.5 18.5625C16.0921 18.5625 15.6933 18.4415 15.3541 18.2149C15.015 17.9883 14.7506 17.6662 14.5945 17.2893C14.4384 16.9124 14.3976 16.4977 14.4771 16.0976C14.5567 15.6975 14.7531 15.33 15.0416 15.0416C15.33 14.7532 15.6975 14.5567 16.0976 14.4771C16.4977 14.3976 16.9124 14.4384 17.2893 14.5945C17.6662 14.7506 17.9883 15.015 18.2149 15.3541C18.4415 15.6933 18.5625 16.0921 18.5625 16.5C18.562 17.0468 18.3445 17.5711 17.9578 17.9578C17.5711 18.3445 17.0468 18.562 16.5 18.5625V18.5625ZM28.875 18.5625C28.4671 18.5625 28.0683 18.4415 27.7291 18.2149C27.39 17.9883 27.1256 17.6662 26.9695 17.2893C26.8134 16.9124 26.7726 16.4977 26.8521 16.0976C26.9317 15.6975 27.1281 15.33 27.4166 15.0416C27.705 14.7532 28.0725 14.5567 28.4726 14.4771C28.8727 14.3976 29.2874 14.4384 29.6643 14.5945C30.0412 14.7506 30.3633 15.015 30.5899 15.3541C30.8165 15.6933 30.9375 16.0921 30.9375 16.5C30.937 17.0468 30.7195 17.5711 30.3328 17.9578C29.9461 18.3445 29.4218 18.562 28.875 18.5625V18.5625Z" fill="white"/>
</svg>
