<svg width="28" height="28" viewBox="0 0 28 28" fill="none" xmlns="http://www.w3.org/2000/svg">
<path d="M26.9189 26.5695L26.8079 26.5586C26.5961 26.5375 26.3889 26.4804 26.1959 26.3897C25.5095 26.0669 24.8842 25.6268 24.3472 25.0906C24.0689 24.8123 23.9298 24.4238 23.9688 24.0314L23.9853 23.8688V23.8016C26.4663 21.2744 27.9992 17.8131 27.9992 14C28 6.28007 21.7199 0 14 0C6.28007 0 0 6.28007 0 14C0 21.7199 6.28007 28 14 28C16.116 28 18.1242 27.5271 19.9244 26.6829H20.3121L21.9638 27.438C22.6783 27.7647 23.4545 27.9336 24.2401 27.9336H24.6294C25.0835 27.9336 25.5338 27.8546 25.9606 27.7014L27.0119 27.3231C27.1659 27.2676 27.2691 27.1214 27.2691 26.9572C27.2691 26.7571 27.1175 26.5898 26.9189 26.5695ZM14 22.239C9.45684 22.239 5.76103 18.5432 5.76103 14C5.76103 9.45684 9.45684 5.76103 14 5.76103C18.5432 5.76103 22.239 9.45684 22.239 14C22.239 18.5432 18.5432 22.239 14 22.239Z" fill="white"/>
<path d="M14.0001 20.6841C16.2455 20.6841 18.0657 19.9348 18.0657 19.0105C18.0657 18.0862 16.2455 17.3369 14.0001 17.3369C11.7548 17.3369 9.93457 18.0862 9.93457 19.0105C9.93457 19.9348 11.7548 20.6841 14.0001 20.6841Z" fill="white"/>
</svg>
