<?xml version="1.0" encoding="UTF-8" standalone="no"?>
<!DOCTYPE svg PUBLIC "-//W3C//DTD SVG 1.1//EN" "http://www.w3.org/Graphics/SVG/1.1/DTD/svg11.dtd">
<svg version="1.1" xmlns="http://www.w3.org/2000/svg" xmlns:xlink="http://www.w3.org/1999/xlink" preserveAspectRatio="xMidYMid meet" viewBox="0 0 20 20" width="20" height="20"><defs><path d="M10.44 10.48C10.85 10.68 11.18 10.98 11.44 11.36C11.78 11.85 11.94 12.39 11.94 12.98C11.94 13.1 11.94 14 11.94 14.12C11.94 14.46 11.83 14.74 11.59 14.97C11.35 15.21 11.06 15.33 10.73 15.33C10 15.33 4.19 15.33 3.46 15.33C3.12 15.33 2.84 15.21 2.61 14.97C2.37 14.74 2.25 14.45 2.25 14.12C2.25 14 2.25 13.1 2.25 12.98C2.25 12.39 2.42 11.85 2.76 11.36C3.01 10.98 3.34 10.68 3.75 10.48C4.17 10.28 4.61 10.17 5.08 10.17C5.35 10.17 5.66 10.22 6.01 10.32C6.4 10.43 6.76 10.47 7.1 10.47C7.44 10.47 7.8 10.43 8.19 10.32C8.53 10.23 8.84 10.17 9.11 10.17C9.58 10.17 10.02 10.28 10.44 10.48ZM11.13 12.98C11.13 12.55 11.02 12.17 10.78 11.81C10.6 11.54 10.36 11.34 10.07 11.19C9.79 11.05 9.47 10.98 9.11 10.98C8.91 10.98 8.66 11.02 8.36 11.11C7.92 11.22 7.5 11.28 7.09 11.28C6.69 11.28 6.27 11.22 5.83 11.11C5.52 11.02 5.27 10.98 5.07 10.98C4.72 10.98 4.39 11.05 4.1 11.19C3.81 11.34 3.58 11.54 3.41 11.81C3.17 12.17 3.05 12.55 3.05 12.98C3.05 13.09 3.05 14 3.05 14.11C3.05 14.23 3.1 14.33 3.17 14.4C3.24 14.48 3.34 14.52 3.46 14.52C4.19 14.52 10 14.52 10.73 14.52C10.85 14.52 10.95 14.48 11.02 14.4C11.1 14.33 11.13 14.23 11.13 14.11C11.13 13.88 11.13 13.09 11.13 12.98ZM5.68 9.29C5.24 9.04 4.9 8.69 4.65 8.26C4.39 7.82 4.26 7.35 4.26 6.84C4.26 6.34 4.39 5.87 4.65 5.43C4.9 4.99 5.24 4.65 5.68 4.39C6.11 4.14 6.59 4.01 7.09 4.01C7.6 4.01 8.07 4.14 8.51 4.39C8.95 4.65 9.29 4.99 9.54 5.43C9.79 5.86 9.92 6.34 9.92 6.84C9.92 7.35 9.79 7.81 9.54 8.26C9.29 8.7 8.94 9.04 8.51 9.29C8.07 9.54 7.6 9.67 7.09 9.67C6.59 9.67 6.12 9.54 5.68 9.29ZM5.67 5.42C5.27 5.82 5.07 6.29 5.07 6.85C5.07 7.41 5.27 7.88 5.67 8.28C6.06 8.67 6.54 8.87 7.09 8.87C7.65 8.87 8.13 8.67 8.52 8.28C8.92 7.88 9.11 7.41 9.11 6.85C9.11 6.29 8.92 5.82 8.52 5.42C8.13 5.03 7.65 4.83 7.09 4.83C6.54 4.83 6.06 5.03 5.67 5.42ZM18.39 12.57C18.39 12.66 18.39 13.41 18.39 13.5C18.39 13.78 18.3 14.02 18.1 14.22C17.91 14.41 17.67 14.51 17.38 14.51C16.91 14.51 13.16 14.51 12.69 14.51C12.72 14.38 12.74 14.16 12.74 13.86C12.74 13.85 12.74 13.8 12.74 13.71C15.52 13.71 17.07 13.71 17.38 13.71C17.43 13.71 17.48 13.69 17.52 13.65C17.57 13.61 17.59 13.56 17.59 13.51C17.59 13.42 17.59 12.67 17.59 12.58C17.59 12.24 17.5 11.94 17.31 11.67C17.17 11.47 16.99 11.31 16.78 11.2C16.57 11.08 16.32 11.03 16.05 11.03C15.88 11.03 15.68 11.06 15.44 11.13C15.08 11.23 14.71 11.28 14.36 11.28C14 11.28 13.64 11.23 13.27 11.13C13.04 11.06 12.85 11.03 12.7 11.03C12.55 11.03 12.38 11.06 12.21 11.11C12.21 11.1 12.21 11.06 12.21 11.06C12.1 10.87 11.93 10.66 11.71 10.43C12.03 10.29 12.35 10.22 12.67 10.22C12.91 10.22 13.17 10.26 13.48 10.35C13.78 10.44 14.08 10.48 14.36 10.48C14.65 10.48 14.94 10.44 15.25 10.35C15.55 10.26 15.82 10.22 16.06 10.22C16.44 10.22 16.81 10.3 17.16 10.47C17.49 10.64 17.78 10.89 17.99 11.21C18.27 11.61 18.39 12.06 18.39 12.57ZM12.65 8.96C12.18 8.49 11.94 7.92 11.94 7.25C11.94 6.58 12.18 6.01 12.65 5.54C13.12 5.07 13.69 4.83 14.36 4.83C15.04 4.83 15.61 5.07 16.08 5.54C16.55 6.01 16.78 6.58 16.78 7.25C16.78 7.92 16.55 8.49 16.08 8.96C15.61 9.43 15.04 9.67 14.36 9.67C13.69 9.67 13.12 9.43 12.65 8.96ZM13.23 6.11C12.91 6.43 12.74 6.81 12.74 7.25C12.74 7.69 12.91 8.07 13.23 8.39C13.55 8.71 13.93 8.87 14.36 8.87C14.8 8.87 15.18 8.71 15.5 8.39C15.82 8.07 15.98 7.69 15.98 7.25C15.98 6.81 15.82 6.43 15.5 6.11C15.18 5.79 14.8 5.63 14.36 5.63C13.93 5.63 13.55 5.79 13.23 6.11Z" id="b1Da8LdosG"></path></defs><g><g><g><use xlink:href="#b1Da8LdosG" opacity="1" fill="#6d6f94" fill-opacity="1"></use><g><use xlink:href="#b1Da8LdosG" opacity="1" fill-opacity="0" stroke="#000000" stroke-width="1" stroke-opacity="0"></use></g></g></g></g></svg>