<svg width="33" height="33" viewBox="0 0 33 33" fill="none" xmlns="http://www.w3.org/2000/svg">
<path d="M32.5861 18.2118C32.538 18.1837 32.4832 18.1653 32.425 18.1592C32.4249 18.1592 32.4248 18.1592 32.4247 18.1592L30.1183 17.9267L30.1039 17.9257L30.0897 17.9251C30.0892 17.9251 30.0887 17.9251 30.0882 17.9251C29.9909 17.923 29.8974 17.9556 29.8254 18.0147C29.7534 18.0739 29.7084 18.1548 29.6963 18.2411C29.2758 21.3294 27.7425 24.1748 25.3673 26.2799C21.634 29.6193 16.2576 30.6141 11.5111 28.8471C11.5105 28.8469 11.5099 28.8467 11.5093 28.8465L11.4952 28.8415C11.4946 28.8413 11.4941 28.8411 11.4936 28.841C11.4003 28.8097 11.2979 28.8145 11.2084 28.854C11.1187 28.8936 11.051 28.9639 11.0169 29.0477L11.0155 29.0511L11.0155 29.0511L10.1051 31.1932C10.0729 31.2776 10.0755 31.3703 10.1124 31.4532L10.1141 31.4568L10.114 31.4569L10.1227 31.4772C10.1413 31.5173 10.1682 31.5541 10.2024 31.5852C10.2372 31.6169 10.2788 31.6419 10.3249 31.6583L10.3288 31.6597L10.3288 31.6597L10.4318 31.6984L32.5861 18.2118ZM32.5861 18.2118L32.6691 18.3128C32.7009 18.3515 32.7239 18.3955 32.737 18.4419C32.7501 18.4884 32.7533 18.5368 32.7465 18.5842L32.7461 18.5875C32.2492 22.3972 30.3766 25.9183 27.4546 28.5318C24.424 31.2426 20.4417 32.7501 16.305 32.75L16.3046 32.75C14.2964 32.7531 12.3052 32.3965 10.4323 31.6986L32.5861 18.2118ZM20.6815 3.97079C18.5217 3.24395 16.2045 3.06606 13.9529 3.45409C11.7013 3.84213 9.59054 4.78319 7.82428 6.18737L7.82428 6.18737L7.82282 6.18854C5.58586 7.99435 3.99602 10.4366 3.28199 13.1678C3.2615 13.2437 3.21509 13.3127 3.14791 13.3631C3.08045 13.4136 2.99633 13.442 2.90863 13.4423C2.90853 13.4423 2.90842 13.4423 2.90832 13.4423L2.79487 13.4423L0.561768 12.9248L0.560583 12.9245C0.509158 12.9128 0.461235 12.8913 0.419641 12.8616C0.378068 12.832 0.343823 12.7949 0.31854 12.7531L0.266475 12.667C0.260713 12.6491 0.25644 12.6307 0.253691 12.6121C0.24661 12.5643 0.249729 12.5155 0.262949 12.4687L0.262992 12.4687L0.264194 12.4641C1.14818 9.08859 3.12643 6.07159 5.91293 3.85303C10.3417 0.336641 16.3579 -0.690949 21.7719 1.14691C21.8218 1.16438 21.8671 1.19112 21.9052 1.22512C21.9423 1.25825 21.9719 1.29756 21.9926 1.34058C22.0299 1.43132 22.0294 1.53202 21.9909 1.62246L21.9908 1.62241L21.988 1.62968L21.1647 3.74679L21.1647 3.74677L21.1628 3.752C21.1313 3.83855 21.0644 3.91235 20.9737 3.95457C20.8828 3.99688 20.7775 4.00288 20.6815 3.97079ZM20.6815 3.97079C20.6816 3.97081 20.6817 3.97083 20.6817 3.97085L20.602 4.20779L20.6814 3.97074C20.6814 3.97076 20.6815 3.97077 20.6815 3.97079Z" fill="white" stroke="white" stroke-width="0.5"/>
<ellipse cx="16.4864" cy="16.4999" rx="3.14852" ry="3.14286" fill="white"/>
</svg>
