<svg width="20" height="20" xmlns="http://www.w3.org/2000/svg">
 <style type="text/css">.st0{fill:#6D6F94;}</style>

 <g>
  <title>background</title>
  <rect fill="none" id="canvas_background" height="22" width="22" y="-1" x="-1"/>
 </g>
 <g>
  <title>Layer 1</title>
  <g stroke="null" id="svg_1">
   <path stroke="null" id="svg_2" d="m9.818366,1.383815c1.57,0 3.02,0.39 4.36,1.18s2.4,1.85 3.18,3.18s1.18,2.79 1.18,4.36s-0.39,3.02 -1.18,4.36s-1.85,2.4 -3.18,3.18s-2.79,1.18 -4.36,1.18c-1.57,0 -3.02,-0.39 -4.36,-1.18s-2.4,-1.85 -3.18,-3.18s-1.18,-2.79 -1.18,-4.36s0.39,-3.02 1.18,-4.36s1.85,-2.4 3.18,-3.18s2.79,-1.18 4.36,-1.18zm0,16.31c1.38,0 2.65,-0.34 3.81,-1.02s2.08,-1.6 2.76,-2.76s1.02,-2.43 1.02,-3.81s-0.34,-2.65 -1.02,-3.81s-1.6,-2.08 -2.76,-2.76s-2.43,-1.02 -3.81,-1.02c-1.38,0 -2.65,0.34 -3.81,1.02s-2.08,1.6 -2.76,2.76s-1.02,2.43 -1.02,3.81s0.34,2.65 1.02,3.81s1.6,2.08 2.76,2.76s2.43,1.02 3.81,1.02zm3.16,-5.13c0.09,-0.12 0.22,-0.19 0.39,-0.21s0.3,0.02 0.42,0.12s0.18,0.23 0.19,0.39s-0.03,0.29 -0.12,0.4c-0.52,0.61 -1.13,1.08 -1.83,1.41s-1.44,0.49 -2.22,0.49s-1.51,-0.16 -2.21,-0.49s-1.31,-0.8 -1.83,-1.41c-0.09,-0.12 -0.13,-0.25 -0.12,-0.4s0.08,-0.28 0.19,-0.37s0.26,-0.13 0.42,-0.12s0.29,0.08 0.39,0.19c0.4,0.47 0.87,0.83 1.42,1.09s1.13,0.39 1.74,0.39s1.19,-0.13 1.74,-0.39c0.56,-0.26 1.04,-0.62 1.43,-1.09zm-5.97,-3.02c-0.3,0 -0.57,-0.11 -0.79,-0.33s-0.33,-0.49 -0.33,-0.79s0.11,-0.57 0.33,-0.79s0.49,-0.33 0.79,-0.33s0.57,0.11 0.79,0.33s0.33,0.49 0.33,0.79s-0.11,0.57 -0.33,0.79s-0.49,0.33 -0.79,0.33zm5.62,0c-0.3,0 -0.57,-0.11 -0.79,-0.33s-0.33,-0.49 -0.33,-0.79s0.11,-0.57 0.33,-0.79s0.49,-0.33 0.79,-0.33s0.57,0.11 0.79,0.33s0.33,0.49 0.33,0.79s-0.11,0.57 -0.33,0.79s-0.48,0.33 -0.79,0.33z" class="st0"/>
  </g>
 </g>
</svg>