<svg width="52" height="51" viewBox="0 0 52 51" fill="none" xmlns="http://www.w3.org/2000/svg">
<path fill-rule="evenodd" clip-rule="evenodd" d="M34.0687 21.2894L33.3869 20.1719C32.81 19.2263 31.5317 18.9001 30.5291 19.4427V19.4427C30.0519 19.7082 29.4825 19.7835 28.9464 19.6521C28.4103 19.5206 27.9516 19.1931 27.6714 18.7419C27.4911 18.4551 27.3943 18.1284 27.3906 17.7949V17.7949C27.4069 17.2602 27.1933 16.742 26.7985 16.3584C26.4037 15.9749 25.8613 15.7586 25.2949 15.7588H23.9212C23.3663 15.7588 22.8343 15.9676 22.4429 16.3391C22.0514 16.7105 21.8329 17.214 21.8355 17.7381V17.7381C21.8191 18.8201 20.8856 19.689 19.7399 19.6889C19.3867 19.6854 19.0408 19.594 18.7371 19.4237V19.4237C17.7346 18.8812 16.4562 19.2074 15.8794 20.1529L15.1474 21.2894C14.5712 22.2337 14.9119 23.4403 15.9095 23.9883V23.9883C16.5579 24.3419 16.9573 24.9953 16.9573 25.7024C16.9573 26.4096 16.5579 27.063 15.9095 27.4165V27.4165C14.9132 27.9609 14.5721 29.1645 15.1474 30.1061V30.1061L15.8393 31.233C16.1095 31.6936 16.563 32.0335 17.0994 32.1774C17.6357 32.3214 18.2107 32.2576 18.697 32.0001V32.0001C19.1752 31.7366 19.7449 31.6644 20.2797 31.7996C20.8144 31.9347 21.2699 32.266 21.5448 32.7198C21.725 33.0066 21.8218 33.3333 21.8255 33.6668V33.6668C21.8255 34.76 22.7638 35.6461 23.9212 35.6461H25.2949C26.4484 35.6461 27.3851 34.7657 27.3906 33.6763V33.6763C27.3879 33.1506 27.6079 32.6457 28.0015 32.274C28.3951 31.9022 28.9297 31.6945 29.4863 31.697C29.8386 31.706 30.1831 31.797 30.489 31.9622V31.9622C31.489 32.5064 32.7665 32.1846 33.3468 31.2425V31.2425L34.0687 30.1061C34.3482 29.6531 34.4249 29.1135 34.2819 28.6069C34.1388 28.1003 33.7879 27.6685 33.3067 27.4071V27.4071C32.8255 27.1456 32.4745 26.7138 32.3315 26.2072C32.1885 25.7006 32.2652 25.1611 32.5446 24.7081C32.7263 24.4084 32.9894 24.16 33.3067 23.9883V23.9883C34.2982 23.4406 34.6381 22.2411 34.0687 21.2988V21.2988V21.2894Z" stroke="#62B5A6" stroke-width="1.5" stroke-linecap="round" stroke-linejoin="round"/>
<ellipse cx="24.6124" cy="25.7023" rx="2.88784" ry="2.7274" stroke="#62B5A6" stroke-width="1.5" stroke-linecap="round" stroke-linejoin="round"/>
</svg>
