<svg width="32" height="33" viewBox="0 0 32 33" fill="none" xmlns="http://www.w3.org/2000/svg">
<path d="M25.3968 21.816C24.548 20.94 23.5562 20.2249 22.4668 19.7037C24.003 18.4203 24.9831 16.4619 24.9831 14.2656C24.9831 10.3908 21.8496 7.21186 18.092 7.27131C14.3922 7.33076 11.4112 10.4397 11.4112 14.2656C11.4112 16.4619 12.3947 18.4203 13.9276 19.7037C12.838 20.2246 11.8461 20.9396 10.9975 21.816C9.14588 23.729 8.09458 26.2539 8.02676 28.9467C8.02585 28.9841 8.0322 29.0212 8.04543 29.0559C8.05866 29.0907 8.0785 29.1224 8.10378 29.1491C8.12907 29.1758 8.15928 29.1971 8.19265 29.2116C8.22601 29.226 8.26186 29.2335 8.29806 29.2335H10.1972C10.343 29.2335 10.4651 29.1146 10.4685 28.9642C10.5329 26.9359 11.3299 25.0369 12.7304 23.5961C13.4472 22.853 14.2997 22.264 15.2386 21.863C16.1775 21.462 17.1843 21.257 18.2006 21.26C20.2658 21.26 22.209 22.0888 23.6707 23.5961C25.0679 25.0369 25.8648 26.9359 25.9326 28.9642C25.936 29.1146 26.0581 29.2335 26.204 29.2335H28.1031C28.1393 29.2335 28.1751 29.226 28.2085 29.2116C28.2418 29.1971 28.2721 29.1758 28.2973 29.1491C28.3226 29.1224 28.3425 29.0907 28.3557 29.0559C28.3689 29.0212 28.3753 28.9841 28.3744 28.9467C28.3065 26.2539 27.2552 23.729 25.3968 21.816ZM18.2006 18.742C17.0407 18.742 15.9488 18.2769 15.1315 17.4306C14.7213 17.0109 14.3973 16.5104 14.1788 15.9588C13.9603 15.4072 13.8518 14.8159 13.8597 14.2202C13.8699 13.0731 14.3142 11.9645 15.0908 11.1427C15.9047 10.2824 16.9933 9.80326 18.1565 9.78927C19.3061 9.77878 20.4218 10.2404 21.2425 11.0692C22.0836 11.919 22.5448 13.0556 22.5448 14.2656C22.5448 15.4617 22.0937 16.5843 21.273 17.4306C20.8704 17.8478 20.3915 18.1785 19.8642 18.4036C19.3368 18.6287 18.7713 18.7437 18.2006 18.742ZM9.70544 15.1889C9.67492 14.8846 9.65796 14.5769 9.65796 14.2656C9.65796 13.7096 9.70883 13.1675 9.80378 12.6395C9.82752 12.5136 9.76309 12.3842 9.65118 12.3317C9.18996 12.1184 8.76606 11.8246 8.3998 11.4539C7.96823 11.0224 7.62862 10.5028 7.40265 9.9284C7.17668 9.35396 7.0693 8.73725 7.08738 8.11763C7.1179 6.99504 7.55537 5.9284 8.31841 5.12405C9.15605 4.23927 10.282 3.75666 11.4791 3.77065C12.5609 3.78114 13.6054 4.21129 14.3956 4.97368C14.6635 5.23247 14.8941 5.51923 15.0874 5.82698C15.1552 5.9354 15.2875 5.98086 15.4028 5.93889C15.9996 5.72557 16.6304 5.57519 17.2781 5.50524C17.468 5.48426 17.5766 5.27443 17.4918 5.09957C16.3896 2.8509 14.1378 1.29816 11.5333 1.25619C7.77241 1.19674 4.63888 4.37566 4.63888 8.24702C4.63888 10.4432 5.61896 12.4017 7.1552 13.6851C6.07678 14.1992 5.08314 14.9091 4.22176 15.7974C2.36334 17.7103 1.31205 20.2353 1.24423 22.9316C1.24332 22.9689 1.24967 23.0061 1.2629 23.0408C1.27613 23.0756 1.29597 23.1073 1.32125 23.134C1.34653 23.1607 1.37675 23.1819 1.41011 23.1964C1.44348 23.2109 1.47932 23.2184 1.51553 23.2184H3.41803C3.56385 23.2184 3.68594 23.0995 3.68933 22.9491C3.75376 20.9207 4.55071 19.0218 5.9513 17.5809C6.94834 16.5528 8.16919 15.8394 9.50196 15.4931C9.63422 15.4582 9.72239 15.3288 9.70544 15.1889V15.1889Z" fill="white"/>
</svg>
