<svg xmlns="http://www.w3.org/2000/svg" width="40" height="43" fill="none" viewBox="0 0 40 43">
    <path fill="#7D6939" d="M13.958 26.508c-1.243 0-2.247-.995-2.247-2.226v-9.578c0-2.554 2.094-4.629 4.672-4.629.332 0 .605.27.605.6 0 .328-.273.598-.605.598-1.906 0-3.464 1.534-3.464 3.431v9.578c0 .565.468 1.029 1.039 1.029.57 0 1.038-.464 1.038-1.029v-7.478c0-.33.272-.599.604-.599.332 0 .605.27.605.599v7.478c0 1.223-1.005 2.226-2.247 2.226z"/>
    <path fill="#7D6939" d="M20.477 42.216H15.6c-.332 0-.604-.27-.604-.599V25.91c0-.33.272-.599.604-.599.332 0 .605.27.605.599v15.109h3.668V24.257c0-.329.272-.599.604-.599.332 0 .604.27.604.6v17.35c0 .338-.272.608-.604.608zM26.997 26.559c-1.243 0-2.247-.995-2.247-2.226v-7.479c0-.328.272-.598.604-.598.332 0 .604.27.604.598v7.479c0 .565.468 1.029 1.039 1.029.57 0 1.038-.464 1.038-1.029v-9.578c0-1.889-1.55-3.432-3.464-3.432-.332 0-.604-.27-.604-.598 0-.33.272-.599.604-.599 2.579 0 4.672 2.074 4.672 4.629v9.578c0 1.23-1.012 2.226-2.246 2.226z"/>
    <path fill="#7D6939" d="M25.354 42.216h-4.877c-.332 0-.604-.27-.604-.599v-17.3c0-.33.272-.6.604-.6.332 0 .605.27.605.6v16.702h3.668V25.96c0-.329.272-.598.604-.598.332 0 .604.27.604.598v15.657c0 .33-.272.599-.604.599zM20.477 8.524c-2.357 0-4.272-1.897-4.272-4.232 0-2.336 1.915-4.233 4.272-4.233 2.358 0 4.273 1.897 4.273 4.233 0 2.335-1.915 4.232-4.273 4.232zm0-7.268c-1.693 0-3.063 1.366-3.063 3.036 0 1.677 1.378 3.035 3.063 3.035 1.694 0 3.064-1.366 3.064-3.035 0-1.67-1.37-3.036-3.064-3.036zM32.145 27.933l4.017 2.462.732-1.172c.068-.118.196-.177.34-.168.137.016.247.1.298.227l1.966 5.186c.043.1.026.219-.034.311-.06.093-.153.152-.264.17l-5.557.58h-.034c-.12 0-.238-.058-.298-.168-.068-.11-.077-.261 0-.37l.732-1.181-4.528-2.774c-.17-.101-.221-.32-.119-.49M7.78 27.933l-4.018 2.462-.732-1.172c-.068-.118-.196-.177-.34-.168-.136.016-.247.1-.298.227L.426 34.468c-.043.1-.026.219.034.311.06.093.153.152.264.17l5.557.58h.034c.12 0 .239-.058.298-.168.068-.11.077-.261 0-.37l-.732-1.173 4.528-2.774c.17-.1.221-.32.12-.489M7.78 11.07L3.761 8.608 3.03 9.78c-.068.118-.196.177-.34.17-.136-.018-.247-.102-.298-.229L.426 4.536C.383 4.435.4 4.316.46 4.224c.06-.093.153-.152.264-.168l5.557-.582h.034c.12 0 .239.059.298.168.068.11.077.262 0 .371l-.732 1.172L10.41 7.96c.17.101.221.32.12.49M32.145 11.07l4.017-2.462.732 1.172c.068.118.196.177.34.17.137-.018.247-.102.298-.229l1.966-5.185c.043-.101.026-.22-.034-.312-.06-.093-.153-.152-.264-.168l-5.557-.582h-.034c-.12 0-.238.059-.298.168-.068.11-.077.262 0 .371l.732 1.18-4.528 2.775c-.17.1-.221.32-.119.489"/>
</svg>
