<svg xmlns="http://www.w3.org/2000/svg" width="15" height="15" fill="none" viewBox="0 0 15 15">
    <path stroke="#6D6F94" stroke-linecap="round" stroke-linejoin="round" d="M7.497 10.423V8.837"/>
    <path fill-rule="evenodd" stroke="#6D6F94" stroke-linecap="round" stroke-linejoin="round" d="M11.369 3.331c1.056 0 1.906.857 1.906 1.913v2.15c-1.537.9-3.569 1.444-5.781 1.444-2.213 0-4.238-.544-5.775-1.444V5.238c0-1.057.856-1.907 1.912-1.907h7.738z" clip-rule="evenodd"/>
    <path stroke="#6D6F94" stroke-linecap="round" stroke-linejoin="round" d="M9.685 3.329v-.23c0-.762-.62-1.38-1.382-1.38H6.691c-.763 0-1.381.618-1.381 1.38v.23M1.734 9.677l.119 1.568c.08 1.057.96 1.874 2.02 1.874h7.249c1.06 0 1.94-.817 2.02-1.874l.118-1.568"/>
</svg>
