<?xml version="1.0" encoding="utf-8"?>
<!-- Generator: Adobe Illustrator 24.0.2, SVG Export Plug-In . SVG Version: 6.00 Build 0)  -->
<svg version="1.1" id="Layer_1" xmlns="http://www.w3.org/2000/svg" xmlns:xlink="http://www.w3.org/1999/xlink" x="0px" y="0px"
	 viewBox="0 0 20 20" style="enable-background:new 0 0 20 20;" xml:space="preserve">
<style type="text/css">
	.st0{fill:none;}
	.st1{fill:#338E9B;}
</style>
<g>
	<path class="st0" d="M9.68,2.7c-4,0-7.25,3.25-7.25,7.25s3.25,7.25,7.25,7.25s7.25-3.25,7.25-7.25S13.68,2.7,9.68,2.7z M12.38,14.2
		h-5.4c-0.41,0-0.75-0.34-0.75-0.75s0.34-0.75,0.75-0.75h5.4c0.41,0,0.75,0.34,0.75,0.75S12.8,14.2,12.38,14.2z M13.28,11.2h-7.2
		c-0.41,0-0.75-0.34-0.75-0.75S5.67,9.7,6.08,9.7h7.2c0.41,0,0.75,0.34,0.75,0.75S13.7,11.2,13.28,11.2z M14.18,8.2h-9
		c-0.41,0-0.75-0.34-0.75-0.75S4.77,6.7,5.18,6.7h9c0.41,0,0.75,0.34,0.75,0.75S14.6,8.2,14.18,8.2z"/>
	<path class="st1" d="M14.18,6.7h-9c-0.41,0-0.75,0.34-0.75,0.75S4.77,8.2,5.18,8.2h9c0.41,0,0.75-0.34,0.75-0.75
		S14.6,6.7,14.18,6.7z"/>
	<path class="st1" d="M13.28,9.7h-7.2c-0.41,0-0.75,0.34-0.75,0.75s0.34,0.75,0.75,0.75h7.2c0.41,0,0.75-0.34,0.75-0.75
		S13.7,9.7,13.28,9.7z"/>
	<path class="st1" d="M12.38,12.7h-5.4c-0.41,0-0.75,0.34-0.75,0.75s0.34,0.75,0.75,0.75h5.4c0.41,0,0.75-0.34,0.75-0.75
		S12.8,12.7,12.38,12.7z"/>
	<path class="st1" d="M9.68,1.2c-4.82,0-8.75,3.93-8.75,8.75s3.93,8.75,8.75,8.75s8.75-3.93,8.75-8.75S14.51,1.2,9.68,1.2z
		 M9.68,17.2c-4,0-7.25-3.25-7.25-7.25S5.69,2.7,9.68,2.7s7.25,3.25,7.25,7.25S13.68,17.2,9.68,17.2z"/>
</g>
</svg>
