<?xml version="1.0" encoding="utf-8"?>
<!-- Generator: Adobe Illustrator 24.0.2, SVG Export Plug-In . SVG Version: 6.00 Build 0)  -->
<svg version="1.1" id="Layer_1" xmlns="http://www.w3.org/2000/svg" xmlns:xlink="http://www.w3.org/1999/xlink" x="0px" y="0px"
	 viewBox="0 0 20 20" style="enable-background:new 0 0 20 20;" xml:space="preserve">
<style type="text/css">
	.st0{fill:none;}
	.st1{fill:#338E9B;}
	.st2{fill:none;stroke:#338E9B;stroke-width:1.5;stroke-linecap:round;stroke-linejoin:round;stroke-miterlimit:10;}
</style>
<g>
	<path class="st0" d="M8.72,13.18c-0.24,0.02-0.48,0.13-0.64,0.31c-0.3,0.33-0.33,0.82-0.12,1.2c0.15,0.28,0.43,0.48,0.85,0.48
		c0.49,0,0.78-0.3,0.87-0.67c0.09-0.21,0.08-0.7-0.21-1.03C9.29,13.29,8.98,13.17,8.72,13.18z"/>
	<path class="st0" d="M6.97,5.66c-0.96,0-1.74,0.77-1.74,1.72c0,0.99,0.76,1.77,1.73,1.77c0.96,0,1.76-0.78,1.76-1.74
		C8.72,6.44,7.94,5.66,6.97,5.66z"/>
	<path class="st0" d="M13.55,9.43c-0.17,0-0.32,0.03-0.45,0.08c-0.04,0.01-0.08,0.02-0.12,0.04c0,0-0.01,0-0.01,0.01
		c-0.17,0.07-0.33,0.2-0.42,0.32c-0.17,0.22-0.27,0.42-0.33,0.66c-0.09,0.31-0.01,0.69,0.19,1.01c0.23,0.37,0.59,0.66,1.16,0.66
		C15.34,12.2,15.34,9.43,13.55,9.43z"/>
	<path class="st1" d="M15.28,9.71c-0.46-0.79-1.41-1.2-2.29-0.98c-0.48,0.12-0.87,0.38-1.19,0.75c-0.78-0.4-1.56-0.81-2.33-1.2
		c-0.1-0.05-0.09-0.11-0.07-0.2c0.42-1.66-0.78-3.21-2.48-3.19C5.88,4.89,4.98,5.53,4.6,6.54C4.23,7.5,4.51,8.6,5.3,9.31
		c0.74,0.66,1.88,0.81,2.78,0.36C8.46,9.49,8.76,9.23,9.01,8.9c0.73,0.38,1.46,0.75,2.18,1.13c0.06,0.03,0.13,0.05,0.17,0.09
		c0.04,0.04,0.07,0.12,0.06,0.17c-0.1,0.43-0.07,0.84,0.09,1.24c0.04,0.11,0.02,0.17-0.07,0.23c-0.44,0.31-0.88,0.62-1.31,0.95
		c-0.12,0.09-0.2,0.11-0.34,0.01c-0.75-0.53-1.77-0.37-2.34,0.32c-0.5,0.6-0.59,1.71,0.19,2.37c0.51,0.43,1.08,0.59,1.71,0.37
		c0.94-0.34,1.38-1.24,1.09-2.2c-0.03-0.1-0.01-0.14,0.07-0.19c0.46-0.33,0.93-0.66,1.38-1c0.1-0.08,0.16-0.06,0.25,0.01
		c0.89,0.71,2.09,0.62,2.87-0.19C15.63,11.55,15.75,10.51,15.28,9.71z M6.96,9.16c-0.97,0-1.73-0.78-1.73-1.77
		c0-0.95,0.78-1.72,1.74-1.72c0.97,0,1.75,0.78,1.75,1.76C8.72,8.37,7.92,9.16,6.96,9.16z M9.67,14.52
		c-0.1,0.36-0.39,0.67-0.87,0.67c-0.42,0-0.69-0.2-0.85-0.48c-0.21-0.38-0.18-0.87,0.12-1.2c0.17-0.19,0.4-0.3,0.64-0.31
		c0.26-0.02,0.57,0.1,0.75,0.3C9.75,13.81,9.76,14.31,9.67,14.52z M13.55,12.2c-0.57,0-0.93-0.29-1.16-0.66
		c-0.19-0.31-0.27-0.7-0.19-1.01c0.07-0.24,0.16-0.44,0.33-0.66c0.09-0.12,0.26-0.25,0.42-0.32c0,0,0.01,0,0.01-0.01
		c0.04-0.02,0.08-0.03,0.12-0.04c0.14-0.05,0.28-0.08,0.45-0.08C15.34,9.43,15.34,12.2,13.55,12.2z"/>
</g>
<circle class="st2" cx="9.68" cy="9.95" r="8"/>
</svg>
