<?xml version="1.0" encoding="utf-8"?>
<!-- Generator: Adobe Illustrator 24.0.2, SVG Export Plug-In . SVG Version: 6.00 Build 0)  -->
<svg version="1.1" id="Layer_1" xmlns="http://www.w3.org/2000/svg" xmlns:xlink="http://www.w3.org/1999/xlink" x="0px" y="0px"
	 viewBox="0 0 20 20" style="enable-background:new 0 0 20 20;" xml:space="preserve">
<style type="text/css">
	.st0{fill:#338E9B;}
</style>
<g>
	<path class="st0" d="M17.91,16.66C17.97,16.72,18,16.8,18,16.91c0,0.1-0.03,0.2-0.09,0.28l-0.72,0.69C17.1,17.96,17.01,18,16.91,18
		s-0.19-0.04-0.25-0.13l-3.81-3.78c-0.06-0.08-0.09-0.17-0.09-0.25v-0.44c-0.58,0.5-1.24,0.89-1.97,1.17S9.29,15,8.5,15
		c-1.19,0-2.28-0.29-3.27-0.88c-0.99-0.58-1.78-1.37-2.36-2.36C2.29,10.78,2,9.69,2,8.5s0.29-2.28,0.88-3.27
		c0.58-0.99,1.37-1.78,2.36-2.36C6.22,2.29,7.31,2,8.5,2s2.28,0.29,3.27,0.88c0.99,0.58,1.78,1.37,2.36,2.36
		C14.71,6.22,15,7.31,15,8.5c0,0.79-0.14,1.55-0.42,2.28c-0.28,0.73-0.67,1.38-1.17,1.97h0.44c0.1,0,0.19,0.03,0.25,0.09
		L17.91,16.66z M8.5,13.5c0.9,0,1.73-0.22,2.5-0.67c0.77-0.45,1.38-1.06,1.83-1.83c0.45-0.77,0.67-1.6,0.67-2.5
		c0-0.9-0.22-1.73-0.67-2.5C12.38,5.23,11.77,4.62,11,4.17C10.23,3.72,9.4,3.5,8.5,3.5S6.77,3.72,6,4.17C5.23,4.62,4.62,5.23,4.17,6
		C3.72,6.77,3.5,7.6,3.5,8.5c0,0.9,0.22,1.73,0.67,2.5c0.45,0.77,1.06,1.38,1.83,1.83C6.77,13.28,7.6,13.5,8.5,13.5z"/>
</g>
</svg>
