<?xml version="1.0" encoding="utf-8"?>
<!-- Generator: Adobe Illustrator 24.0.2, SVG Export Plug-In . SVG Version: 6.00 Build 0)  -->
<svg version="1.1" id="Layer_1" xmlns="http://www.w3.org/2000/svg" xmlns:xlink="http://www.w3.org/1999/xlink" x="0px" y="0px"
	 viewBox="0 0 160 160" style="enable-background:new 0 0 160 160;" xml:space="preserve">
<style type="text/css">
	.st0{fill:none;}
	.st1{fill:#EDEEF2;}
	.st2{fill:#767D86;}
</style>
<g>
	<path class="st0" d="M116.54,70.23c-4.25-16.51-19.14-28.04-36.21-28.04c-20.61,0-37.38,16.77-37.38,37.38s16.77,37.38,37.38,37.38
		c15.97,0,30.18-10.14,35.37-25.24c0.31-0.9,1.19-1.43,2.1-1.34c0.99-3.44,1.54-7.06,1.54-10.81c0-2.69-0.27-5.31-0.79-7.85
		C117.62,71.76,116.77,71.16,116.54,70.23z"/>
	<path class="st1" d="M80.33,131.08c28.4,0,51.5-23.1,51.5-51.5c0-28.4-23.1-51.5-51.5-51.5c-28.4,0-51.5,23.1-51.5,51.5
		C28.83,107.98,51.93,131.08,80.33,131.08z M80.33,38.19c18.9,0,35.38,12.76,40.08,31.04c0.28,1.07-0.37,2.16-1.44,2.44
		c-0.15,0.04-0.29,0.05-0.44,0.06c0.52,2.54,0.79,5.16,0.79,7.85c0,3.75-0.54,7.38-1.54,10.81c0.15,0.02,0.3,0.04,0.44,0.09
		c1.04,0.36,1.6,1.5,1.24,2.54c-5.74,16.71-21.47,27.94-39.15,27.94c-22.82,0-41.38-18.57-41.38-41.38
		C38.94,56.76,57.51,38.19,80.33,38.19z"/>
	<path class="st2" d="M24.52,31.46c0.55,0,1.09-0.22,1.49-0.67c1.55-1.72,3.19-3.4,4.9-4.97c0.81-0.75,0.86-2.01,0.12-2.83
		c-0.75-0.81-2.01-0.87-2.83-0.12c-1.8,1.66-3.54,3.42-5.17,5.24c-0.74,0.82-0.67,2.09,0.15,2.82
		C23.57,31.29,24.05,31.46,24.52,31.46z"/>
	<path class="st2" d="M155.15,85.4c-1.08-0.1-2.08,0.68-2.2,1.78c-0.24,2.3-0.6,4.62-1.06,6.9c-0.22,1.08,0.48,2.14,1.56,2.36
		c0.13,0.03,0.27,0.04,0.4,0.04c0.93,0,1.77-0.65,1.96-1.6c0.49-2.4,0.86-4.85,1.12-7.28C157.05,86.5,156.25,85.52,155.15,85.4z"/>
	<path class="st2" d="M26.56,128.97c-0.75-0.81-2.01-0.87-2.83-0.12c-0.81,0.75-0.87,2.01-0.12,2.83c1.65,1.8,3.42,3.54,5.24,5.17
		c0.38,0.34,0.86,0.51,1.33,0.51c0.55,0,1.09-0.22,1.49-0.66c0.74-0.82,0.67-2.09-0.15-2.82C29.8,132.33,28.13,130.68,26.56,128.97z
		"/>
	<path class="st2" d="M13.93,109.96c-0.46-1.01-1.65-1.45-2.65-0.99c-1,0.46-1.45,1.64-0.99,2.65c1.02,2.23,2.15,4.43,3.37,6.54
		c0.37,0.64,1.04,1,1.73,1c0.34,0,0.68-0.09,1-0.27c0.96-0.55,1.28-1.78,0.73-2.73C15.97,114.15,14.9,112.07,13.93,109.96z"/>
	<path class="st2" d="M10.96,50.98c0.26,0.12,0.54,0.17,0.81,0.17c0.77,0,1.5-0.44,1.83-1.19c0.94-2.12,2-4.21,3.14-6.23
		c0.54-0.96,0.2-2.18-0.76-2.72c-0.96-0.54-2.18-0.2-2.72,0.76c-1.2,2.13-2.31,4.34-3.31,6.57C9.49,49.35,9.95,50.53,10.96,50.98z"
		/>
	<path class="st2" d="M7.81,87.96c-0.13-1.1-1.12-1.89-2.22-1.75c-1.1,0.13-1.88,1.12-1.75,2.22c0.28,2.4,0.68,4.82,1.18,7.18
		c0,0.01,0.02,0.08,0.02,0.08c0.2,0.93,1.02,1.55,1.93,1.55c0.14,0,0.29-0.01,0.43-0.05c1.08-0.23,1.76-1.32,1.53-2.4
		C8.45,92.53,8.07,90.23,7.81,87.96z"/>
	<path class="st2" d="M116.88,142.79c-2.01,1.16-4.09,2.23-6.2,3.19c-1,0.46-1.45,1.64-0.99,2.65c0.34,0.74,1.06,1.17,1.82,1.17
		c0.28,0,0.56-0.06,0.83-0.18c2.22-1.01,4.43-2.15,6.54-3.37c0.96-0.55,1.28-1.78,0.73-2.73
		C119.06,142.57,117.84,142.24,116.88,142.79z"/>
	<path class="st2" d="M50.69,146.3c-2.12-0.94-4.21-2-6.23-3.14c-0.96-0.54-2.18-0.2-2.72,0.76c-0.54,0.96-0.2,2.18,0.76,2.73
		c2.13,1.2,4.34,2.31,6.57,3.31c0.26,0.12,0.54,0.17,0.81,0.17c0.77,0,1.5-0.44,1.83-1.19C52.15,147.93,51.7,146.75,50.69,146.3z"/>
	<path class="st2" d="M95.53,150.98c-2.27,0.48-4.57,0.86-6.86,1.13c-1.1,0.13-1.88,1.12-1.76,2.22c0.12,1.02,0.98,1.77,1.98,1.77
		c0.08,0,0.16,0,0.23-0.01c2.41-0.28,4.84-0.68,7.19-1.18l-0.35-1.97L95.53,150.98z"/>
	<path class="st2" d="M72.75,152.21c-2.3-0.24-4.62-0.59-6.9-1.05c-1.08-0.22-2.14,0.48-2.36,1.56s0.48,2.14,1.56,2.36
		c2.4,0.49,4.85,0.86,7.28,1.11c0.07,0.01,0.14,0.01,0.21,0.01c1.01,0,1.88-0.76,1.99-1.79C74.65,153.3,73.85,152.32,72.75,152.21z"
		/>
	<path class="st2" d="M149.68,108.23c-1.01-0.45-2.19,0-2.64,1.01c-0.94,2.12-2,4.21-3.14,6.23c-0.54,0.96-0.2,2.18,0.76,2.73
		c0.31,0.18,0.65,0.26,0.98,0.26c0.7,0,1.38-0.37,1.74-1.02c1.2-2.13,2.32-4.34,3.31-6.57
		C151.14,109.87,150.69,108.68,149.68,108.23z"/>
	<path class="st2" d="M109.91,12.83c2.12,0.94,4.22,2,6.23,3.13c0.31,0.18,0.65,0.26,0.98,0.26c0.7,0,1.38-0.37,1.74-1.02
		c0.54-0.96,0.2-2.18-0.76-2.72c-2.13-1.2-4.34-2.31-6.57-3.3c-1.01-0.45-2.19,0.01-2.64,1.02C108.45,11.2,108.9,12.39,109.91,12.83
		z"/>
	<path class="st2" d="M146.7,49.14c0.34,0.73,1.06,1.17,1.82,1.17c0.28,0,0.56-0.06,0.83-0.18c1-0.46,1.45-1.65,0.99-2.65
		c-1.02-2.22-2.15-4.42-3.38-6.54c-0.55-0.96-1.78-1.28-2.73-0.73c-0.96,0.55-1.28,1.78-0.73,2.73
		C144.66,44.95,145.74,47.03,146.7,49.14z"/>
	<path class="st2" d="M134.06,30.14c0.39,0.43,0.93,0.64,1.47,0.64c0.48,0,0.97-0.18,1.36-0.53c0.81-0.75,0.86-2.01,0.11-2.83
		c-1.66-1.8-3.42-3.53-5.24-5.16c-0.82-0.74-2.09-0.67-2.82,0.15c-0.74,0.82-0.67,2.09,0.15,2.82
		C130.81,26.79,132.48,28.44,134.06,30.14z"/>
	<path class="st2" d="M5.5,73.81c0.07,0.01,0.14,0.01,0.21,0.01c1.01,0,1.88-0.77,1.99-1.79c0.24-2.3,0.59-4.62,1.05-6.9
		c0.22-1.08-0.48-2.14-1.56-2.36c-1.08-0.22-2.14,0.48-2.36,1.56c-0.49,2.4-0.86,4.85-1.11,7.28C3.61,72.72,4.41,73.7,5.5,73.81z"/>
	<path class="st2" d="M151.73,64.38c0.48,2.27,0.86,4.59,1.13,6.89c0.12,1.02,0.98,1.77,1.98,1.77c0.08,0,0.16,0,0.23-0.01
		c1.1-0.13,1.88-1.12,1.76-2.22c-0.28-2.42-0.68-4.86-1.19-7.26l-0.03-0.12c-0.23-1.08-1.29-1.77-2.37-1.54
		c-1.08,0.23-1.77,1.29-1.54,2.37L151.73,64.38z"/>
	<path class="st2" d="M87.85,6.95c2.3,0.24,4.62,0.59,6.9,1.05c0.13,0.03,0.27,0.04,0.4,0.04c0.93,0,1.77-0.66,1.96-1.6
		c0.22-1.08-0.48-2.14-1.56-2.36c-2.4-0.48-4.85-0.86-7.28-1.11c-1.09-0.11-2.08,0.69-2.19,1.78C85.95,5.85,86.75,6.83,87.85,6.95z"
		/>
	<path class="st2" d="M64.7,8.22c0.14,0,0.28-0.01,0.43-0.04c2.24-0.48,4.53-0.85,6.8-1.12c1.1-0.13,1.88-1.12,1.75-2.22
		c-0.13-1.1-1.12-1.88-2.22-1.75c-2.39,0.28-4.8,0.68-7.18,1.18l0.34,1.97l-0.43-1.95c-1.08,0.24-1.71,1.29-1.48,2.37
		C62.91,7.59,63.77,8.22,64.7,8.22z"/>
	<path class="st2" d="M42.72,16.67c0.34,0,0.69-0.09,1-0.27c2.01-1.16,4.09-2.24,6.2-3.2c1-0.46,1.45-1.65,0.99-2.65
		c-0.46-1.01-1.65-1.45-2.65-0.99c-2.22,1.01-4.42,2.15-6.54,3.38c-0.96,0.55-1.28,1.78-0.73,2.73
		C41.36,16.31,42.03,16.67,42.72,16.67z"/>
	<path class="st2" d="M80.33,120.96c17.68,0,33.41-11.23,39.15-27.94c0.36-1.04-0.2-2.18-1.24-2.54c-0.15-0.05-0.3-0.08-0.44-0.09
		c-0.9-0.09-1.79,0.44-2.1,1.34c-5.18,15.09-19.4,25.24-35.37,25.24c-20.61,0-37.38-16.77-37.38-37.38s16.77-37.38,37.38-37.38
		c17.07,0,31.96,11.53,36.21,28.04c0.24,0.92,1.08,1.53,2,1.5c0.14,0,0.29-0.02,0.44-0.06c1.07-0.28,1.71-1.37,1.44-2.44
		c-4.7-18.28-21.18-31.04-40.08-31.04c-22.82,0-41.38,18.56-41.38,41.38C38.94,102.4,57.51,120.96,80.33,120.96z"/>
	
		<rect x="119.66" y="119.62" transform="matrix(0.7071 -0.7071 0.7071 0.7071 -50.6588 122.6023)" class="st1" width="6.02" height="5.66"/>
	<path class="st1" d="M134.19,120.73c-0.08-0.08-0.18-0.12-0.28-0.12c-0.1,0-0.2,0.04-0.28,0.12l-12.68,12.68
		c-0.16,0.16-0.16,0.41,0,0.56l19.82,19.82c0.19,0.2,0.37,0.19,0.56,0l12.68-12.68c0.16-0.16,0.16-0.41,0-0.56L134.19,120.73z"/>
	<path class="st2" d="M156.63,137.93l-19.82-19.82c-1.6-1.6-4.2-1.6-5.8,0l-1.39,1.39l-5.67-5.67c7.43-9.44,11.88-21.33,11.88-34.25
		c0-30.6-24.9-55.5-55.5-55.5c-30.6,0-55.5,24.9-55.5,55.5c0,30.6,24.9,55.5,55.5,55.5c12.64,0,24.31-4.26,33.65-11.4l5.73,5.73
		l-1.39,1.39c-1.6,1.6-1.6,4.2,0,5.8l19.82,19.82c0.77,0.77,1.8,1.2,2.9,1.2s2.13-0.43,2.9-1.2l12.68-12.68
		C158.22,142.13,158.22,139.53,156.63,137.93z M154.01,141.11l-12.68,12.68c-0.19,0.19-0.37,0.19-0.56,0l-19.82-19.82
		c-0.16-0.16-0.16-0.41,0-0.56l12.68-12.68c0.08-0.08,0.18-0.12,0.28-0.12c0.1,0,0.21,0.04,0.28,0.12l19.82,19.82
		C154.16,140.71,154.16,140.96,154.01,141.11z M122.79,118.32l4,4l-4.25,4.26l-4-4L122.79,118.32z M80.33,28.08
		c28.4,0,51.5,23.1,51.5,51.5c0,28.4-23.1,51.5-51.5,51.5c-28.4,0-51.5-23.1-51.5-51.5C28.83,51.18,51.93,28.08,80.33,28.08z"/>
</g>
</svg>
